G75*
%MOIN*%
%OFA0B0*%
%FSLAX25Y25*%
%IPPOS*%
%LPD*%
%AMOC8*
5,1,8,0,0,1.08239X$1,22.5*
%
%ADD10R,0.04737X0.12611*%
%ADD11R,0.03937X0.11811*%
%ADD12R,0.06312X0.06706*%
%ADD13R,0.05512X0.05906*%
%ADD14R,0.06706X0.06312*%
%ADD15R,0.05906X0.05512*%
%ADD16R,0.06737X0.06737*%
%ADD17OC8,0.06737*%
%ADD18R,0.04737X0.02178*%
%ADD19R,0.03937X0.01378*%
%ADD20C,0.04369*%
D10*
X0034071Y0101591D03*
X0034071Y0137024D03*
D11*
X0034071Y0137024D03*
X0034071Y0101591D03*
D12*
X0041256Y0137024D03*
X0049327Y0137024D03*
X0026886Y0137024D03*
X0018815Y0137024D03*
D13*
X0018815Y0137024D03*
X0026886Y0137024D03*
X0041256Y0137024D03*
X0049327Y0137024D03*
D14*
X0034071Y0048539D03*
X0034071Y0040469D03*
X0034071Y0032791D03*
X0034071Y0024720D03*
D15*
X0034071Y0024720D03*
X0034071Y0032791D03*
X0034071Y0040469D03*
X0034071Y0048539D03*
D16*
X0059071Y0139031D03*
X0019071Y0149031D03*
X0009071Y0139031D03*
D17*
X0009071Y0009031D03*
X0009071Y0019031D03*
X0009071Y0029031D03*
X0009071Y0039031D03*
X0009071Y0049031D03*
X0009071Y0059031D03*
X0009071Y0069031D03*
X0009071Y0079031D03*
X0009071Y0089031D03*
X0009071Y0099031D03*
X0009071Y0109031D03*
X0009071Y0119031D03*
X0009071Y0129031D03*
X0029071Y0149031D03*
X0039071Y0149031D03*
X0049071Y0149031D03*
X0059071Y0129031D03*
X0059071Y0119031D03*
X0059071Y0109031D03*
X0059071Y0099031D03*
X0059071Y0089031D03*
X0059071Y0079031D03*
X0059071Y0069031D03*
X0059071Y0059031D03*
X0059071Y0049031D03*
X0059071Y0039031D03*
X0059071Y0029031D03*
X0059071Y0019031D03*
X0059071Y0009031D03*
D18*
X0045882Y0057398D03*
X0045882Y0059957D03*
X0045882Y0062516D03*
X0045882Y0065075D03*
X0045882Y0067634D03*
X0045882Y0070193D03*
X0045882Y0072752D03*
X0045882Y0075311D03*
X0045882Y0077870D03*
X0045882Y0080429D03*
X0045882Y0082988D03*
X0045882Y0085547D03*
X0045882Y0088106D03*
X0045882Y0090665D03*
X0022260Y0090665D03*
X0022260Y0088106D03*
X0022260Y0085547D03*
X0022260Y0082988D03*
X0022260Y0080429D03*
X0022260Y0077870D03*
X0022260Y0075311D03*
X0022260Y0072752D03*
X0022260Y0070193D03*
X0022260Y0067634D03*
X0022260Y0065075D03*
X0022260Y0062516D03*
X0022260Y0059957D03*
X0022260Y0057398D03*
D19*
X0022260Y0057398D03*
X0022260Y0059957D03*
X0022260Y0062516D03*
X0022260Y0065075D03*
X0022260Y0067634D03*
X0022260Y0070193D03*
X0022260Y0072752D03*
X0022260Y0075311D03*
X0022260Y0077870D03*
X0022260Y0080429D03*
X0022260Y0082988D03*
X0022260Y0085547D03*
X0022260Y0088106D03*
X0022260Y0090665D03*
X0045882Y0090665D03*
X0045882Y0088106D03*
X0045882Y0085547D03*
X0045882Y0082988D03*
X0045882Y0080429D03*
X0045882Y0077870D03*
X0045882Y0075311D03*
X0045882Y0072752D03*
X0045882Y0070193D03*
X0045882Y0067634D03*
X0045882Y0065075D03*
X0045882Y0062516D03*
X0045882Y0059957D03*
X0045882Y0057398D03*
D20*
X0045291Y0042535D03*
X0049228Y0028756D03*
X0038598Y0068126D03*
X0048441Y0095685D03*
X0049228Y0109465D03*
X0040567Y0131118D03*
X0030724Y0127181D03*
X0022850Y0105528D03*
X0018913Y0119307D03*
X0022850Y0042535D03*
X0018913Y0028756D03*
M02*
