G75*
%MOIN*%
%OFA0B0*%
%FSLAX25Y25*%
%IPPOS*%
%LPD*%
%AMOC8*
5,1,8,0,0,1.08239X$1,22.5*
%
%ADD10R,0.06312X0.06706*%
%ADD11R,0.05512X0.05906*%
%ADD12R,0.06737X0.06737*%
%ADD13OC8,0.06737*%
%ADD14C,0.04369*%
D10*
X0030035Y0077969D03*
X0030035Y0085843D03*
X0030035Y0093717D03*
X0038106Y0093717D03*
X0038106Y0085843D03*
X0038106Y0077969D03*
D11*
X0038106Y0077969D03*
X0038106Y0085843D03*
X0038106Y0093717D03*
X0030035Y0093717D03*
X0030035Y0085843D03*
X0030035Y0077969D03*
D12*
X0009071Y0139031D03*
X0019071Y0149031D03*
X0059071Y0139031D03*
D13*
X0009071Y0009031D03*
X0009071Y0019031D03*
X0009071Y0029031D03*
X0009071Y0039031D03*
X0009071Y0049031D03*
X0009071Y0059031D03*
X0009071Y0069031D03*
X0009071Y0079031D03*
X0009071Y0089031D03*
X0009071Y0099031D03*
X0009071Y0109031D03*
X0009071Y0119031D03*
X0009071Y0129031D03*
X0029071Y0149031D03*
X0039071Y0149031D03*
X0049071Y0149031D03*
X0059071Y0129031D03*
X0059071Y0119031D03*
X0059071Y0109031D03*
X0059071Y0099031D03*
X0059071Y0089031D03*
X0059071Y0079031D03*
X0059071Y0069031D03*
X0059071Y0059031D03*
X0059071Y0049031D03*
X0059071Y0039031D03*
X0059071Y0029031D03*
X0059071Y0019031D03*
X0059071Y0009031D03*
D14*
X0049228Y0028756D03*
X0045291Y0042535D03*
X0038598Y0068126D03*
X0048441Y0095685D03*
X0049228Y0109465D03*
X0040567Y0131118D03*
X0030724Y0127181D03*
X0022850Y0105528D03*
X0018913Y0119307D03*
X0022850Y0042535D03*
X0018913Y0028756D03*
M02*
