G75*
%MOIN*%
%OFA0B0*%
%FSLAX25Y25*%
%IPPOS*%
%LPD*%
%AMOC8*
5,1,8,0,0,1.08239X$1,22.5*
%
%ADD10R,0.03937X0.11811*%
%ADD11R,0.05512X0.05906*%
%ADD12R,0.05906X0.05512*%
%ADD13R,0.05937X0.05937*%
%ADD14OC8,0.05937*%
%ADD15R,0.03937X0.01378*%
%ADD16C,0.01000*%
%ADD17C,0.03569*%
D10*
X0034071Y0101591D03*
X0034071Y0137024D03*
D11*
X0041256Y0137024D03*
X0049327Y0137024D03*
X0026886Y0137024D03*
X0018815Y0137024D03*
D12*
X0034071Y0048539D03*
X0034071Y0040469D03*
X0034071Y0032791D03*
X0034071Y0024720D03*
D13*
X0059071Y0139031D03*
X0019071Y0149031D03*
X0009071Y0139031D03*
D14*
X0009071Y0009031D03*
X0009071Y0019031D03*
X0009071Y0029031D03*
X0009071Y0039031D03*
X0009071Y0049031D03*
X0009071Y0059031D03*
X0009071Y0069031D03*
X0009071Y0079031D03*
X0009071Y0089031D03*
X0009071Y0099031D03*
X0009071Y0109031D03*
X0009071Y0119031D03*
X0009071Y0129031D03*
X0029071Y0149031D03*
X0039071Y0149031D03*
X0049071Y0149031D03*
X0059071Y0129031D03*
X0059071Y0119031D03*
X0059071Y0109031D03*
X0059071Y0099031D03*
X0059071Y0089031D03*
X0059071Y0079031D03*
X0059071Y0069031D03*
X0059071Y0059031D03*
X0059071Y0049031D03*
X0059071Y0039031D03*
X0059071Y0029031D03*
X0059071Y0019031D03*
X0059071Y0009031D03*
D15*
X0045882Y0057398D03*
X0045882Y0059957D03*
X0045882Y0062516D03*
X0045882Y0065075D03*
X0045882Y0067634D03*
X0045882Y0070193D03*
X0045882Y0072752D03*
X0045882Y0075311D03*
X0045882Y0077870D03*
X0045882Y0080429D03*
X0045882Y0082988D03*
X0045882Y0085547D03*
X0045882Y0088106D03*
X0045882Y0090665D03*
X0022260Y0090665D03*
X0022260Y0088106D03*
X0022260Y0085547D03*
X0022260Y0082988D03*
X0022260Y0080429D03*
X0022260Y0077870D03*
X0022260Y0075311D03*
X0022260Y0072752D03*
X0022260Y0070193D03*
X0022260Y0067634D03*
X0022260Y0065075D03*
X0022260Y0062516D03*
X0022260Y0059957D03*
X0022260Y0057398D03*
D16*
X0021965Y0057398D01*
X0016945Y0052378D01*
X0016945Y0042535D01*
X0014976Y0040567D01*
X0014976Y0014937D01*
X0009071Y0009031D01*
X0011970Y0005894D02*
X0013339Y0007263D01*
X0013339Y0010754D01*
X0016776Y0014191D01*
X0016776Y0026531D01*
X0017166Y0026141D01*
X0018300Y0025672D01*
X0019527Y0025672D01*
X0020660Y0026141D01*
X0021528Y0027009D01*
X0021998Y0028142D01*
X0021998Y0029369D01*
X0021528Y0030503D01*
X0020713Y0031318D01*
X0020713Y0040311D01*
X0021103Y0039921D01*
X0022237Y0039451D01*
X0023464Y0039451D01*
X0024597Y0039921D01*
X0025465Y0040788D01*
X0025935Y0041922D01*
X0025935Y0043149D01*
X0025465Y0044283D01*
X0024650Y0045097D01*
X0024650Y0047695D01*
X0028924Y0051969D01*
X0028924Y0051140D01*
X0029818Y0050247D01*
X0029818Y0045245D01*
X0030559Y0044504D01*
X0029818Y0043763D01*
X0029818Y0037174D01*
X0030362Y0036630D01*
X0029818Y0036086D01*
X0029818Y0029497D01*
X0030477Y0028838D01*
X0030197Y0028677D01*
X0029918Y0028397D01*
X0029720Y0028055D01*
X0029618Y0027674D01*
X0029618Y0025220D01*
X0033571Y0025220D01*
X0033571Y0024220D01*
X0034571Y0024220D01*
X0034571Y0020465D01*
X0037221Y0020465D01*
X0037603Y0020567D01*
X0037945Y0020764D01*
X0038224Y0021044D01*
X0038421Y0021386D01*
X0038524Y0021767D01*
X0038524Y0024220D01*
X0034571Y0024220D01*
X0034571Y0025220D01*
X0038524Y0025220D01*
X0038524Y0027674D01*
X0038421Y0028055D01*
X0038224Y0028397D01*
X0037945Y0028677D01*
X0037665Y0028838D01*
X0038324Y0029497D01*
X0038324Y0036086D01*
X0037779Y0036630D01*
X0038324Y0037174D01*
X0038324Y0043763D01*
X0037583Y0044504D01*
X0038324Y0045245D01*
X0038324Y0051834D01*
X0037562Y0052595D01*
X0032561Y0052595D01*
X0032524Y0052631D01*
X0032524Y0094185D01*
X0033587Y0094185D01*
X0033587Y0101106D01*
X0034555Y0101106D01*
X0034555Y0094185D01*
X0036237Y0094185D01*
X0036618Y0094287D01*
X0036798Y0094391D01*
X0036798Y0087065D01*
X0037853Y0086011D01*
X0040117Y0083747D01*
X0042613Y0083747D01*
X0042613Y0081761D01*
X0042665Y0081709D01*
X0042613Y0081657D01*
X0042613Y0079202D01*
X0042665Y0079150D01*
X0042613Y0079098D01*
X0042613Y0076643D01*
X0042665Y0076591D01*
X0042613Y0076538D01*
X0042613Y0074084D01*
X0042665Y0074031D01*
X0042613Y0073979D01*
X0042613Y0071525D01*
X0042665Y0071472D01*
X0042613Y0071420D01*
X0042613Y0068965D01*
X0042665Y0068913D01*
X0042613Y0068861D01*
X0042613Y0066406D01*
X0042665Y0066354D01*
X0042613Y0066302D01*
X0042613Y0064316D01*
X0040117Y0064316D01*
X0039062Y0063261D01*
X0036798Y0060998D01*
X0036798Y0053601D01*
X0037853Y0052546D01*
X0043491Y0046908D01*
X0043491Y0045097D01*
X0042677Y0044283D01*
X0042207Y0043149D01*
X0042207Y0041922D01*
X0042677Y0040788D01*
X0043544Y0039921D01*
X0044678Y0039451D01*
X0045905Y0039451D01*
X0047038Y0039921D01*
X0047428Y0040311D01*
X0047428Y0031318D01*
X0046614Y0030503D01*
X0046144Y0029369D01*
X0046144Y0028142D01*
X0046614Y0027009D01*
X0047481Y0026141D01*
X0048615Y0025672D01*
X0049842Y0025672D01*
X0050975Y0026141D01*
X0051365Y0026531D01*
X0051365Y0014191D01*
X0054802Y0010754D01*
X0054802Y0007263D01*
X0056172Y0005894D01*
X0011970Y0005894D01*
X0012265Y0006189D02*
X0055876Y0006189D01*
X0054878Y0007188D02*
X0013264Y0007188D01*
X0013339Y0008186D02*
X0054802Y0008186D01*
X0054802Y0009185D02*
X0013339Y0009185D01*
X0013339Y0010183D02*
X0054802Y0010183D01*
X0054375Y0011182D02*
X0013767Y0011182D01*
X0014765Y0012180D02*
X0053376Y0012180D01*
X0052378Y0013179D02*
X0015764Y0013179D01*
X0016762Y0014177D02*
X0051379Y0014177D01*
X0051365Y0015176D02*
X0016776Y0015176D01*
X0016776Y0016175D02*
X0051365Y0016175D01*
X0051365Y0017173D02*
X0016776Y0017173D01*
X0016776Y0018172D02*
X0051365Y0018172D01*
X0051365Y0019170D02*
X0016776Y0019170D01*
X0016776Y0020169D02*
X0051365Y0020169D01*
X0051365Y0021167D02*
X0038295Y0021167D01*
X0038524Y0022166D02*
X0051365Y0022166D01*
X0051365Y0023164D02*
X0038524Y0023164D01*
X0038524Y0024163D02*
X0051365Y0024163D01*
X0051365Y0025161D02*
X0034571Y0025161D01*
X0034571Y0024163D02*
X0033571Y0024163D01*
X0033571Y0024220D02*
X0033571Y0020465D01*
X0030921Y0020465D01*
X0030539Y0020567D01*
X0030197Y0020764D01*
X0029918Y0021044D01*
X0029720Y0021386D01*
X0029618Y0021767D01*
X0029618Y0024220D01*
X0033571Y0024220D01*
X0033571Y0025161D02*
X0016776Y0025161D01*
X0016776Y0024163D02*
X0029618Y0024163D01*
X0029618Y0023164D02*
X0016776Y0023164D01*
X0016776Y0022166D02*
X0029618Y0022166D01*
X0029846Y0021167D02*
X0016776Y0021167D01*
X0016776Y0026160D02*
X0017148Y0026160D01*
X0018913Y0028756D02*
X0018913Y0048441D01*
X0026787Y0056315D01*
X0026787Y0058283D01*
X0025114Y0059957D01*
X0022260Y0059957D01*
X0022260Y0062516D02*
X0026492Y0062516D01*
X0028756Y0060252D01*
X0028756Y0054346D01*
X0022850Y0048441D01*
X0022850Y0042535D01*
X0024816Y0040139D02*
X0029818Y0040139D01*
X0029818Y0041137D02*
X0025610Y0041137D01*
X0025935Y0042136D02*
X0029818Y0042136D01*
X0029818Y0043134D02*
X0025935Y0043134D01*
X0025527Y0044133D02*
X0030188Y0044133D01*
X0029932Y0045131D02*
X0024650Y0045131D01*
X0024650Y0046130D02*
X0029818Y0046130D01*
X0029818Y0047128D02*
X0024650Y0047128D01*
X0025082Y0048127D02*
X0029818Y0048127D01*
X0029818Y0049125D02*
X0026080Y0049125D01*
X0027079Y0050124D02*
X0029818Y0050124D01*
X0030724Y0051886D02*
X0030724Y0095685D01*
X0026787Y0099622D01*
X0026787Y0129051D01*
X0018815Y0137024D01*
X0016925Y0137024D01*
X0014976Y0138972D01*
X0014917Y0139031D01*
X0014917Y0144878D01*
X0019071Y0149031D01*
X0017348Y0144763D02*
X0022578Y0144763D01*
X0023339Y0145525D01*
X0023339Y0152012D01*
X0025732Y0152012D01*
X0024602Y0150882D01*
X0024602Y0149516D01*
X0028587Y0149516D01*
X0028587Y0148547D01*
X0029555Y0148547D01*
X0029555Y0144563D01*
X0030922Y0144563D01*
X0033539Y0147181D01*
X0033539Y0148547D01*
X0029555Y0148547D01*
X0029555Y0149516D01*
X0033539Y0149516D01*
X0033539Y0150882D01*
X0032410Y0152012D01*
X0036015Y0152012D01*
X0034802Y0150800D01*
X0034802Y0147263D01*
X0037303Y0144763D01*
X0040839Y0144763D01*
X0043339Y0147263D01*
X0043339Y0150800D01*
X0042127Y0152012D01*
X0046015Y0152012D01*
X0044802Y0150800D01*
X0044802Y0147309D01*
X0039456Y0141962D01*
X0039456Y0141276D01*
X0037962Y0141276D01*
X0037339Y0140654D01*
X0037339Y0143468D01*
X0036578Y0144229D01*
X0031564Y0144229D01*
X0030802Y0143468D01*
X0030802Y0140654D01*
X0030180Y0141276D01*
X0023591Y0141276D01*
X0022850Y0140535D01*
X0022109Y0141276D01*
X0016717Y0141276D01*
X0016717Y0144132D01*
X0017348Y0144763D01*
X0016717Y0143984D02*
X0031319Y0143984D01*
X0031341Y0144982D02*
X0037083Y0144982D01*
X0036823Y0143984D02*
X0041478Y0143984D01*
X0041058Y0144982D02*
X0042476Y0144982D01*
X0042057Y0145981D02*
X0043475Y0145981D01*
X0043055Y0146980D02*
X0044473Y0146980D01*
X0044802Y0147978D02*
X0043339Y0147978D01*
X0043339Y0148977D02*
X0044802Y0148977D01*
X0044802Y0149975D02*
X0043339Y0149975D01*
X0043165Y0150974D02*
X0044976Y0150974D01*
X0045975Y0151972D02*
X0042167Y0151972D01*
X0040479Y0142985D02*
X0037339Y0142985D01*
X0037339Y0141987D02*
X0039481Y0141987D01*
X0041256Y0141217D02*
X0049071Y0149031D01*
X0047348Y0144763D02*
X0050839Y0144763D01*
X0053339Y0147263D01*
X0053339Y0150800D01*
X0052127Y0152012D01*
X0062248Y0152012D01*
X0062248Y0143497D01*
X0062237Y0143500D01*
X0059555Y0143500D01*
X0059555Y0139516D01*
X0058587Y0139516D01*
X0058587Y0143500D01*
X0055905Y0143500D01*
X0055523Y0143398D01*
X0055181Y0143200D01*
X0054902Y0142921D01*
X0054705Y0142579D01*
X0054602Y0142197D01*
X0054602Y0139516D01*
X0058587Y0139516D01*
X0058587Y0138547D01*
X0059555Y0138547D01*
X0059555Y0134563D01*
X0062237Y0134563D01*
X0062248Y0134566D01*
X0062248Y0131891D01*
X0060839Y0133300D01*
X0057303Y0133300D01*
X0054802Y0130800D01*
X0054802Y0127309D01*
X0051365Y0123872D01*
X0051365Y0111689D01*
X0050975Y0112079D01*
X0049842Y0112549D01*
X0048615Y0112549D01*
X0047481Y0112079D01*
X0046614Y0111212D01*
X0046144Y0110078D01*
X0046144Y0108851D01*
X0046614Y0107717D01*
X0046759Y0107572D01*
X0037539Y0098353D01*
X0037539Y0101106D01*
X0034555Y0101106D01*
X0034555Y0102075D01*
X0033587Y0102075D01*
X0033587Y0108996D01*
X0031905Y0108996D01*
X0031523Y0108894D01*
X0031181Y0108696D01*
X0030902Y0108417D01*
X0030705Y0108075D01*
X0030602Y0107694D01*
X0030602Y0102075D01*
X0033587Y0102075D01*
X0033587Y0101106D01*
X0030602Y0101106D01*
X0030602Y0098353D01*
X0028587Y0100368D01*
X0028587Y0129797D01*
X0025613Y0132771D01*
X0030180Y0132771D01*
X0030802Y0133393D01*
X0030802Y0130580D01*
X0031564Y0129818D01*
X0036578Y0129818D01*
X0037339Y0130580D01*
X0037339Y0133393D01*
X0037927Y0132805D01*
X0037483Y0131732D01*
X0037483Y0130505D01*
X0037952Y0129371D01*
X0038820Y0128503D01*
X0039953Y0128034D01*
X0041180Y0128034D01*
X0042314Y0128503D01*
X0043182Y0129371D01*
X0043651Y0130505D01*
X0043651Y0131732D01*
X0043221Y0132771D01*
X0044550Y0132771D01*
X0045209Y0133430D01*
X0045371Y0133150D01*
X0045650Y0132871D01*
X0045992Y0132673D01*
X0046373Y0132571D01*
X0048827Y0132571D01*
X0048827Y0136524D01*
X0049827Y0136524D01*
X0049827Y0137524D01*
X0048827Y0137524D01*
X0048827Y0141476D01*
X0046373Y0141476D01*
X0045992Y0141374D01*
X0045650Y0141177D01*
X0045371Y0140897D01*
X0045209Y0140618D01*
X0044550Y0141276D01*
X0043861Y0141276D01*
X0047348Y0144763D01*
X0046569Y0143984D02*
X0062248Y0143984D01*
X0062248Y0144982D02*
X0051058Y0144982D01*
X0052057Y0145981D02*
X0062248Y0145981D01*
X0062248Y0146980D02*
X0053055Y0146980D01*
X0053339Y0147978D02*
X0062248Y0147978D01*
X0062248Y0148977D02*
X0053339Y0148977D01*
X0053339Y0149975D02*
X0062248Y0149975D01*
X0062248Y0150974D02*
X0053165Y0150974D01*
X0052167Y0151972D02*
X0062248Y0151972D01*
X0059555Y0142985D02*
X0058587Y0142985D01*
X0058587Y0141987D02*
X0059555Y0141987D01*
X0059555Y0140988D02*
X0058587Y0140988D01*
X0058587Y0139990D02*
X0059555Y0139990D01*
X0058587Y0138991D02*
X0053583Y0138991D01*
X0053583Y0137993D02*
X0054602Y0137993D01*
X0054602Y0138547D02*
X0054602Y0135866D01*
X0054705Y0135484D01*
X0054902Y0135142D01*
X0055181Y0134863D01*
X0055523Y0134665D01*
X0055905Y0134563D01*
X0058587Y0134563D01*
X0058587Y0138547D01*
X0054602Y0138547D01*
X0054602Y0139990D02*
X0053583Y0139990D01*
X0053583Y0140174D02*
X0053480Y0140555D01*
X0053283Y0140897D01*
X0053004Y0141177D01*
X0052662Y0141374D01*
X0052280Y0141476D01*
X0049827Y0141476D01*
X0049827Y0137524D01*
X0053583Y0137524D01*
X0053583Y0140174D01*
X0053192Y0140988D02*
X0054602Y0140988D01*
X0054602Y0141987D02*
X0044572Y0141987D01*
X0044838Y0140988D02*
X0045462Y0140988D01*
X0045570Y0142985D02*
X0054967Y0142985D01*
X0054602Y0136994D02*
X0049827Y0136994D01*
X0049827Y0136524D02*
X0053583Y0136524D01*
X0053583Y0133873D01*
X0053480Y0133492D01*
X0053283Y0133150D01*
X0053004Y0132871D01*
X0052662Y0132673D01*
X0052280Y0132571D01*
X0049827Y0132571D01*
X0049827Y0136524D01*
X0049827Y0135996D02*
X0048827Y0135996D01*
X0048827Y0134997D02*
X0049827Y0134997D01*
X0049827Y0133999D02*
X0048827Y0133999D01*
X0048827Y0133000D02*
X0049827Y0133000D01*
X0049827Y0137993D02*
X0048827Y0137993D01*
X0048827Y0138991D02*
X0049827Y0138991D01*
X0049827Y0139990D02*
X0048827Y0139990D01*
X0048827Y0140988D02*
X0049827Y0140988D01*
X0053583Y0135996D02*
X0054602Y0135996D01*
X0055047Y0134997D02*
X0053583Y0134997D01*
X0053583Y0133999D02*
X0062248Y0133999D01*
X0062248Y0133000D02*
X0061139Y0133000D01*
X0062137Y0132002D02*
X0062248Y0132002D01*
X0059555Y0134997D02*
X0058587Y0134997D01*
X0058587Y0135996D02*
X0059555Y0135996D01*
X0059555Y0136994D02*
X0058587Y0136994D01*
X0058587Y0137993D02*
X0059555Y0137993D01*
X0057003Y0133000D02*
X0053133Y0133000D01*
X0055006Y0131003D02*
X0043651Y0131003D01*
X0043539Y0132002D02*
X0056005Y0132002D01*
X0054802Y0130005D02*
X0043444Y0130005D01*
X0042817Y0129006D02*
X0054802Y0129006D01*
X0054802Y0128008D02*
X0028587Y0128008D01*
X0028587Y0129006D02*
X0038317Y0129006D01*
X0037690Y0130005D02*
X0036765Y0130005D01*
X0037339Y0131003D02*
X0037483Y0131003D01*
X0037595Y0132002D02*
X0037339Y0132002D01*
X0037339Y0133000D02*
X0037732Y0133000D01*
X0040567Y0131118D02*
X0040567Y0136335D01*
X0041256Y0137024D01*
X0041256Y0141217D01*
X0041256Y0137024D02*
X0034071Y0137024D01*
X0026886Y0137024D01*
X0026382Y0132002D02*
X0030802Y0132002D01*
X0030802Y0133000D02*
X0030410Y0133000D01*
X0030802Y0131003D02*
X0027381Y0131003D01*
X0028379Y0130005D02*
X0031377Y0130005D01*
X0028587Y0127009D02*
X0054503Y0127009D01*
X0053505Y0126011D02*
X0028587Y0126011D01*
X0028587Y0125012D02*
X0052506Y0125012D01*
X0051508Y0124014D02*
X0028587Y0124014D01*
X0028587Y0123015D02*
X0051365Y0123015D01*
X0051365Y0122017D02*
X0028587Y0122017D01*
X0028587Y0121018D02*
X0051365Y0121018D01*
X0051365Y0120020D02*
X0028587Y0120020D01*
X0028587Y0119021D02*
X0051365Y0119021D01*
X0051365Y0118023D02*
X0028587Y0118023D01*
X0028587Y0117024D02*
X0051365Y0117024D01*
X0051365Y0116026D02*
X0028587Y0116026D01*
X0028587Y0115027D02*
X0051365Y0115027D01*
X0051365Y0114029D02*
X0028587Y0114029D01*
X0028587Y0113030D02*
X0051365Y0113030D01*
X0051365Y0112032D02*
X0051023Y0112032D01*
X0049228Y0109465D02*
X0049228Y0107496D01*
X0038598Y0096866D01*
X0038598Y0087811D01*
X0040862Y0085547D01*
X0045882Y0085547D01*
X0045882Y0082988D02*
X0048343Y0082988D01*
X0051197Y0085843D01*
X0051197Y0091748D01*
X0053165Y0093717D01*
X0053165Y0103126D01*
X0059071Y0109031D01*
X0059071Y0099031D02*
X0059071Y0095685D01*
X0053165Y0089780D01*
X0053165Y0083874D01*
X0049720Y0080429D01*
X0045882Y0080429D01*
X0045882Y0077870D02*
X0051098Y0077870D01*
X0059071Y0085843D01*
X0059071Y0089031D01*
X0059071Y0079031D02*
X0055350Y0075311D01*
X0045882Y0075311D01*
X0045882Y0072752D02*
X0055350Y0072752D01*
X0059071Y0069031D01*
X0059071Y0062220D02*
X0059071Y0059031D01*
X0059071Y0062220D02*
X0051098Y0070193D01*
X0045882Y0070193D01*
X0045882Y0067634D02*
X0049720Y0067634D01*
X0053165Y0064189D01*
X0053165Y0058283D01*
X0059071Y0052378D01*
X0059071Y0049031D01*
X0053165Y0044937D02*
X0059071Y0039031D01*
X0053165Y0040567D02*
X0053165Y0014937D01*
X0059071Y0009031D01*
X0051365Y0026160D02*
X0050994Y0026160D01*
X0049228Y0028756D02*
X0049228Y0047654D01*
X0040567Y0056315D01*
X0040567Y0058283D01*
X0042240Y0059957D01*
X0045882Y0059957D01*
X0045882Y0057398D02*
X0046177Y0057398D01*
X0051197Y0052378D01*
X0051197Y0042535D01*
X0053165Y0040567D01*
X0053165Y0044937D02*
X0053165Y0054346D01*
X0051197Y0056315D01*
X0051197Y0062220D01*
X0048343Y0065075D01*
X0045882Y0065075D01*
X0045882Y0062516D02*
X0040862Y0062516D01*
X0038598Y0060252D01*
X0038598Y0054346D01*
X0045291Y0047654D01*
X0045291Y0042535D01*
X0043326Y0040139D02*
X0038324Y0040139D01*
X0038324Y0041137D02*
X0042532Y0041137D01*
X0042207Y0042136D02*
X0038324Y0042136D01*
X0038324Y0043134D02*
X0042207Y0043134D01*
X0042615Y0044133D02*
X0037954Y0044133D01*
X0038210Y0045131D02*
X0043491Y0045131D01*
X0043491Y0046130D02*
X0038324Y0046130D01*
X0038324Y0047128D02*
X0043271Y0047128D01*
X0042272Y0048127D02*
X0038324Y0048127D01*
X0038324Y0049125D02*
X0041274Y0049125D01*
X0040275Y0050124D02*
X0038324Y0050124D01*
X0038324Y0051122D02*
X0039277Y0051122D01*
X0038278Y0052121D02*
X0038036Y0052121D01*
X0037280Y0053119D02*
X0032524Y0053119D01*
X0032524Y0054118D02*
X0036798Y0054118D01*
X0036798Y0055116D02*
X0032524Y0055116D01*
X0032524Y0056115D02*
X0036798Y0056115D01*
X0036798Y0057113D02*
X0032524Y0057113D01*
X0032524Y0058112D02*
X0036798Y0058112D01*
X0036798Y0059111D02*
X0032524Y0059111D01*
X0032524Y0060109D02*
X0036798Y0060109D01*
X0036908Y0061108D02*
X0032524Y0061108D01*
X0032524Y0062106D02*
X0037907Y0062106D01*
X0038905Y0063105D02*
X0032524Y0063105D01*
X0032524Y0064103D02*
X0039904Y0064103D01*
X0042613Y0065102D02*
X0032524Y0065102D01*
X0032524Y0066100D02*
X0042613Y0066100D01*
X0042613Y0067099D02*
X0032524Y0067099D01*
X0032524Y0068097D02*
X0042613Y0068097D01*
X0042613Y0069096D02*
X0032524Y0069096D01*
X0032524Y0070094D02*
X0042613Y0070094D01*
X0042613Y0071093D02*
X0032524Y0071093D01*
X0032524Y0072091D02*
X0042613Y0072091D01*
X0042613Y0073090D02*
X0032524Y0073090D01*
X0032524Y0074088D02*
X0042613Y0074088D01*
X0042613Y0075087D02*
X0032524Y0075087D01*
X0032524Y0076085D02*
X0042613Y0076085D01*
X0042613Y0077084D02*
X0032524Y0077084D01*
X0032524Y0078082D02*
X0042613Y0078082D01*
X0042613Y0079081D02*
X0032524Y0079081D01*
X0032524Y0080079D02*
X0042613Y0080079D01*
X0042613Y0081078D02*
X0032524Y0081078D01*
X0032524Y0082076D02*
X0042613Y0082076D01*
X0042613Y0083075D02*
X0032524Y0083075D01*
X0032524Y0084073D02*
X0039791Y0084073D01*
X0038792Y0085072D02*
X0032524Y0085072D01*
X0032524Y0086070D02*
X0037794Y0086070D01*
X0036798Y0087069D02*
X0032524Y0087069D01*
X0032524Y0088067D02*
X0036798Y0088067D01*
X0036798Y0089066D02*
X0032524Y0089066D01*
X0032524Y0090064D02*
X0036798Y0090064D01*
X0036798Y0091063D02*
X0032524Y0091063D01*
X0032524Y0092061D02*
X0036798Y0092061D01*
X0036798Y0093060D02*
X0032524Y0093060D01*
X0032524Y0094058D02*
X0036798Y0094058D01*
X0037539Y0099051D02*
X0038238Y0099051D01*
X0037539Y0100049D02*
X0039236Y0100049D01*
X0040235Y0101048D02*
X0037539Y0101048D01*
X0037539Y0102075D02*
X0037539Y0107694D01*
X0037437Y0108075D01*
X0037240Y0108417D01*
X0036960Y0108696D01*
X0036618Y0108894D01*
X0036237Y0108996D01*
X0034555Y0108996D01*
X0034555Y0102075D01*
X0037539Y0102075D01*
X0037539Y0103045D02*
X0042232Y0103045D01*
X0043230Y0104044D02*
X0037539Y0104044D01*
X0037539Y0105042D02*
X0044229Y0105042D01*
X0045227Y0106041D02*
X0037539Y0106041D01*
X0037539Y0107039D02*
X0046226Y0107039D01*
X0046481Y0108038D02*
X0037447Y0108038D01*
X0034555Y0108038D02*
X0033587Y0108038D01*
X0033587Y0107039D02*
X0034555Y0107039D01*
X0034555Y0106041D02*
X0033587Y0106041D01*
X0033587Y0105042D02*
X0034555Y0105042D01*
X0034555Y0104044D02*
X0033587Y0104044D01*
X0033587Y0103045D02*
X0034555Y0103045D01*
X0034555Y0102046D02*
X0041233Y0102046D01*
X0044270Y0096055D02*
X0051365Y0096055D01*
X0051365Y0095057D02*
X0043272Y0095057D01*
X0042367Y0094152D02*
X0051365Y0103150D01*
X0051365Y0102380D01*
X0051365Y0094462D01*
X0049397Y0092494D01*
X0049397Y0086588D01*
X0049150Y0086342D01*
X0049150Y0086775D01*
X0049098Y0086827D01*
X0049150Y0086879D01*
X0049150Y0089228D01*
X0049248Y0089397D01*
X0049350Y0089779D01*
X0049350Y0090665D01*
X0045882Y0090665D01*
X0045882Y0090665D01*
X0042413Y0090665D01*
X0042413Y0090479D01*
X0042367Y0090525D01*
X0042367Y0094152D01*
X0042367Y0094058D02*
X0050962Y0094058D01*
X0049963Y0093060D02*
X0042367Y0093060D01*
X0042992Y0092555D02*
X0042713Y0092275D01*
X0042516Y0091933D01*
X0042413Y0091552D01*
X0042413Y0090665D01*
X0045882Y0090665D01*
X0045882Y0090665D01*
X0049350Y0090665D01*
X0049350Y0091552D01*
X0049248Y0091933D01*
X0049051Y0092275D01*
X0048771Y0092555D01*
X0048429Y0092752D01*
X0048048Y0092854D01*
X0045882Y0092854D01*
X0045882Y0090665D01*
X0045882Y0090665D01*
X0045882Y0092854D01*
X0043716Y0092854D01*
X0043334Y0092752D01*
X0042992Y0092555D01*
X0042590Y0092061D02*
X0042367Y0092061D01*
X0042367Y0091063D02*
X0042413Y0091063D01*
X0040567Y0089780D02*
X0042240Y0088106D01*
X0045882Y0088106D01*
X0045882Y0091063D02*
X0045882Y0091063D01*
X0045882Y0092061D02*
X0045882Y0092061D01*
X0045269Y0097054D02*
X0051365Y0097054D01*
X0051365Y0098052D02*
X0046267Y0098052D01*
X0047266Y0099051D02*
X0051365Y0099051D01*
X0051365Y0100049D02*
X0048264Y0100049D01*
X0049263Y0101048D02*
X0051365Y0101048D01*
X0051365Y0102046D02*
X0050261Y0102046D01*
X0051260Y0103045D02*
X0051365Y0103045D01*
X0053165Y0107496D02*
X0053165Y0123126D01*
X0059071Y0129031D01*
X0053165Y0107496D02*
X0040567Y0094898D01*
X0040567Y0089780D01*
X0034555Y0095057D02*
X0033587Y0095057D01*
X0033587Y0096055D02*
X0034555Y0096055D01*
X0034555Y0097054D02*
X0033587Y0097054D01*
X0033587Y0098052D02*
X0034555Y0098052D01*
X0034555Y0099051D02*
X0033587Y0099051D01*
X0033587Y0100049D02*
X0034555Y0100049D01*
X0034555Y0101048D02*
X0033587Y0101048D01*
X0033587Y0102046D02*
X0028587Y0102046D01*
X0028587Y0101048D02*
X0030602Y0101048D01*
X0030602Y0100049D02*
X0028906Y0100049D01*
X0028587Y0103045D02*
X0030602Y0103045D01*
X0030602Y0104044D02*
X0028587Y0104044D01*
X0028587Y0105042D02*
X0030602Y0105042D01*
X0030602Y0106041D02*
X0028587Y0106041D01*
X0028587Y0107039D02*
X0030602Y0107039D01*
X0030695Y0108038D02*
X0028587Y0108038D01*
X0028587Y0109036D02*
X0046144Y0109036D01*
X0046144Y0110035D02*
X0028587Y0110035D01*
X0028587Y0111033D02*
X0046540Y0111033D01*
X0047434Y0112032D02*
X0028587Y0112032D01*
X0022850Y0105528D02*
X0022850Y0099622D01*
X0028756Y0093717D01*
X0028756Y0087811D01*
X0026492Y0085547D01*
X0022260Y0085547D01*
X0022260Y0082988D02*
X0019799Y0082988D01*
X0016945Y0085843D01*
X0016945Y0091748D01*
X0014976Y0093717D01*
X0014976Y0103126D01*
X0009071Y0109031D01*
X0009071Y0099031D02*
X0009071Y0095685D01*
X0014976Y0089780D01*
X0014976Y0083874D01*
X0018421Y0080429D01*
X0022260Y0080429D01*
X0022260Y0077870D02*
X0017043Y0077870D01*
X0009071Y0085843D01*
X0009071Y0089031D01*
X0009071Y0079031D02*
X0012791Y0075311D01*
X0022260Y0075311D01*
X0022260Y0072752D02*
X0012791Y0072752D01*
X0009071Y0069031D01*
X0009071Y0062220D02*
X0009071Y0059031D01*
X0009071Y0062220D02*
X0017043Y0070193D01*
X0022260Y0070193D01*
X0022260Y0067634D02*
X0018421Y0067634D01*
X0014976Y0064189D01*
X0014976Y0058283D01*
X0009071Y0052378D01*
X0009071Y0049031D01*
X0014976Y0044937D02*
X0009071Y0039031D01*
X0014976Y0044937D02*
X0014976Y0054346D01*
X0016945Y0056315D01*
X0016945Y0062220D01*
X0019799Y0065075D01*
X0022260Y0065075D01*
X0028077Y0051122D02*
X0028942Y0051122D01*
X0030724Y0051886D02*
X0034071Y0048539D01*
X0034071Y0040469D02*
X0034071Y0032791D01*
X0037982Y0029155D02*
X0046144Y0029155D01*
X0046144Y0028157D02*
X0038363Y0028157D01*
X0038524Y0027158D02*
X0046552Y0027158D01*
X0047463Y0026160D02*
X0038524Y0026160D01*
X0038324Y0030154D02*
X0046469Y0030154D01*
X0047263Y0031152D02*
X0038324Y0031152D01*
X0038324Y0032151D02*
X0047428Y0032151D01*
X0047428Y0033149D02*
X0038324Y0033149D01*
X0038324Y0034148D02*
X0047428Y0034148D01*
X0047428Y0035146D02*
X0038324Y0035146D01*
X0038265Y0036145D02*
X0047428Y0036145D01*
X0047428Y0037143D02*
X0038293Y0037143D01*
X0038324Y0038142D02*
X0047428Y0038142D01*
X0047428Y0039140D02*
X0038324Y0039140D01*
X0034571Y0023164D02*
X0033571Y0023164D01*
X0033571Y0022166D02*
X0034571Y0022166D01*
X0034571Y0021167D02*
X0033571Y0021167D01*
X0029779Y0028157D02*
X0021998Y0028157D01*
X0021998Y0029155D02*
X0030160Y0029155D01*
X0029818Y0030154D02*
X0021673Y0030154D01*
X0020879Y0031152D02*
X0029818Y0031152D01*
X0029818Y0032151D02*
X0020713Y0032151D01*
X0020713Y0033149D02*
X0029818Y0033149D01*
X0029818Y0034148D02*
X0020713Y0034148D01*
X0020713Y0035146D02*
X0029818Y0035146D01*
X0029877Y0036145D02*
X0020713Y0036145D01*
X0020713Y0037143D02*
X0029849Y0037143D01*
X0029818Y0038142D02*
X0020713Y0038142D01*
X0020713Y0039140D02*
X0029818Y0039140D01*
X0029618Y0027158D02*
X0021590Y0027158D01*
X0020679Y0026160D02*
X0029618Y0026160D01*
X0020885Y0040139D02*
X0020713Y0040139D01*
X0022260Y0088106D02*
X0025114Y0088106D01*
X0026787Y0089780D01*
X0026787Y0091748D01*
X0018913Y0099622D01*
X0018913Y0119307D01*
X0014976Y0107496D02*
X0014976Y0138972D01*
X0014917Y0139031D02*
X0009071Y0139031D01*
X0016717Y0141987D02*
X0030802Y0141987D01*
X0030802Y0142985D02*
X0016717Y0142985D01*
X0022397Y0140988D02*
X0023304Y0140988D01*
X0022797Y0144982D02*
X0026800Y0144982D01*
X0027220Y0144563D02*
X0028587Y0144563D01*
X0028587Y0148547D01*
X0024602Y0148547D01*
X0024602Y0147181D01*
X0027220Y0144563D01*
X0028587Y0144982D02*
X0029555Y0144982D01*
X0029555Y0145981D02*
X0028587Y0145981D01*
X0028587Y0146980D02*
X0029555Y0146980D01*
X0029555Y0147978D02*
X0028587Y0147978D01*
X0028587Y0148977D02*
X0023339Y0148977D01*
X0023339Y0149975D02*
X0024602Y0149975D01*
X0024694Y0150974D02*
X0023339Y0150974D01*
X0023339Y0151972D02*
X0025692Y0151972D01*
X0024602Y0147978D02*
X0023339Y0147978D01*
X0023339Y0146980D02*
X0024803Y0146980D01*
X0025802Y0145981D02*
X0023339Y0145981D01*
X0029555Y0148977D02*
X0034802Y0148977D01*
X0034802Y0149975D02*
X0033539Y0149975D01*
X0033448Y0150974D02*
X0034976Y0150974D01*
X0035975Y0151972D02*
X0032450Y0151972D01*
X0033539Y0147978D02*
X0034802Y0147978D01*
X0035086Y0146980D02*
X0033338Y0146980D01*
X0032340Y0145981D02*
X0036085Y0145981D01*
X0037339Y0140988D02*
X0037674Y0140988D01*
X0030802Y0140988D02*
X0030468Y0140988D01*
X0044780Y0133000D02*
X0045520Y0133000D01*
X0030602Y0099051D02*
X0029904Y0099051D01*
X0022260Y0090665D02*
X0021965Y0090665D01*
X0016945Y0095685D01*
X0016945Y0105528D01*
X0014976Y0107496D01*
X0047256Y0040139D02*
X0047428Y0040139D01*
X0049150Y0087069D02*
X0049397Y0087069D01*
X0049397Y0088067D02*
X0049150Y0088067D01*
X0049150Y0089066D02*
X0049397Y0089066D01*
X0049397Y0090064D02*
X0049350Y0090064D01*
X0049350Y0091063D02*
X0049397Y0091063D01*
X0049397Y0092061D02*
X0049174Y0092061D01*
D17*
X0048441Y0095685D03*
X0049228Y0109465D03*
X0040567Y0131118D03*
X0030724Y0127181D03*
X0022850Y0105528D03*
X0018913Y0119307D03*
X0038598Y0068126D03*
X0045291Y0042535D03*
X0049228Y0028756D03*
X0022850Y0042535D03*
X0018913Y0028756D03*
M02*
