G75*
%MOIN*%
%OFA0B0*%
%FSLAX25Y25*%
%IPPOS*%
%LPD*%
%AMOC8*
5,1,8,0,0,1.08239X$1,22.5*
%
%ADD10C,0.00394*%
%ADD11C,0.00200*%
%ADD12C,0.00100*%
%ADD13C,0.00500*%
D10*
X0001197Y0001197D02*
X0001197Y0156709D01*
X0066945Y0156709D01*
X0066945Y0001197D01*
X0001197Y0001197D01*
D11*
X0002063Y0005304D02*
X0002063Y0006405D01*
X0002430Y0006771D01*
X0003164Y0006771D01*
X0003531Y0006405D01*
X0003531Y0005304D01*
X0004265Y0005304D02*
X0002063Y0005304D01*
X0002430Y0007513D02*
X0002063Y0007880D01*
X0002063Y0008614D01*
X0002430Y0008981D01*
X0002797Y0008981D01*
X0003164Y0008614D01*
X0003531Y0008981D01*
X0003898Y0008981D01*
X0004265Y0008614D01*
X0004265Y0007880D01*
X0003898Y0007513D01*
X0003164Y0008247D02*
X0003164Y0008614D01*
X0003898Y0009723D02*
X0003898Y0010090D01*
X0004265Y0010090D01*
X0004265Y0009723D01*
X0003898Y0009723D01*
X0003898Y0010828D02*
X0004265Y0011195D01*
X0004265Y0011929D01*
X0003898Y0012296D01*
X0003531Y0012296D01*
X0003164Y0011929D01*
X0003164Y0011562D01*
X0003164Y0011929D02*
X0002797Y0012296D01*
X0002430Y0012296D01*
X0002063Y0011929D01*
X0002063Y0011195D01*
X0002430Y0010828D01*
X0002063Y0015146D02*
X0002063Y0016247D01*
X0002430Y0016614D01*
X0003164Y0016614D01*
X0003531Y0016247D01*
X0003531Y0015146D01*
X0004265Y0015146D02*
X0002063Y0015146D01*
X0002430Y0017356D02*
X0002063Y0017723D01*
X0002063Y0018457D01*
X0002430Y0018824D01*
X0002797Y0018824D01*
X0003164Y0018457D01*
X0003531Y0018824D01*
X0003898Y0018824D01*
X0004265Y0018457D01*
X0004265Y0017723D01*
X0003898Y0017356D01*
X0003164Y0018090D02*
X0003164Y0018457D01*
X0003898Y0019566D02*
X0003898Y0019933D01*
X0004265Y0019933D01*
X0004265Y0019566D01*
X0003898Y0019566D01*
X0004265Y0020671D02*
X0002797Y0022139D01*
X0002430Y0022139D01*
X0002063Y0021772D01*
X0002063Y0021038D01*
X0002430Y0020671D01*
X0002063Y0024989D02*
X0002063Y0026090D01*
X0002430Y0026457D01*
X0003164Y0026457D01*
X0003531Y0026090D01*
X0003531Y0024989D01*
X0004265Y0024989D02*
X0002063Y0024989D01*
X0002430Y0027198D02*
X0002063Y0027565D01*
X0002063Y0028299D01*
X0002430Y0028666D01*
X0002797Y0028666D01*
X0004265Y0027198D01*
X0004265Y0028666D01*
X0004265Y0029408D02*
X0004265Y0029775D01*
X0003898Y0029775D01*
X0003898Y0029408D01*
X0004265Y0029408D01*
X0004265Y0030513D02*
X0002797Y0031981D01*
X0002430Y0031981D01*
X0002063Y0031614D01*
X0002063Y0030880D01*
X0002430Y0030513D01*
X0002063Y0034831D02*
X0002063Y0035932D01*
X0002430Y0036299D01*
X0003164Y0036299D01*
X0003531Y0035932D01*
X0003531Y0034831D01*
X0004265Y0034831D02*
X0002063Y0034831D01*
X0002430Y0037041D02*
X0002063Y0037408D01*
X0002063Y0038142D01*
X0002430Y0038509D01*
X0002797Y0038509D01*
X0004265Y0037041D01*
X0004265Y0038509D01*
X0004265Y0039251D02*
X0004265Y0039618D01*
X0003898Y0039618D01*
X0003898Y0039251D01*
X0004265Y0039251D01*
X0004265Y0040356D02*
X0004265Y0041824D01*
X0004265Y0041090D02*
X0002063Y0041090D01*
X0002797Y0040356D01*
X0002063Y0044674D02*
X0002063Y0045775D01*
X0002430Y0046142D01*
X0003164Y0046142D01*
X0003531Y0045775D01*
X0003531Y0044674D01*
X0004265Y0044674D02*
X0002063Y0044674D01*
X0002430Y0046884D02*
X0002063Y0047251D01*
X0002063Y0047984D01*
X0002430Y0048351D01*
X0002797Y0048351D01*
X0004265Y0046884D01*
X0004265Y0048351D01*
X0004265Y0049093D02*
X0004265Y0049460D01*
X0003898Y0049460D01*
X0003898Y0049093D01*
X0004265Y0049093D01*
X0003898Y0050198D02*
X0002430Y0051666D01*
X0003898Y0051666D01*
X0004265Y0051299D01*
X0004265Y0050565D01*
X0003898Y0050198D01*
X0002430Y0050198D01*
X0002063Y0050565D01*
X0002063Y0051299D01*
X0002430Y0051666D01*
X0002063Y0054516D02*
X0002063Y0055617D01*
X0002430Y0055984D01*
X0003164Y0055984D01*
X0003531Y0055617D01*
X0003531Y0054516D01*
X0004265Y0054516D02*
X0002063Y0054516D01*
X0002430Y0056726D02*
X0002063Y0057093D01*
X0002063Y0057827D01*
X0002430Y0058194D01*
X0002797Y0058194D01*
X0003164Y0057827D01*
X0003531Y0058194D01*
X0003898Y0058194D01*
X0004265Y0057827D01*
X0004265Y0057093D01*
X0003898Y0056726D01*
X0003164Y0057460D02*
X0003164Y0057827D01*
X0003898Y0058936D02*
X0003898Y0059303D01*
X0004265Y0059303D01*
X0004265Y0058936D01*
X0003898Y0058936D01*
X0003898Y0060041D02*
X0002430Y0061509D01*
X0003898Y0061509D01*
X0004265Y0061142D01*
X0004265Y0060408D01*
X0003898Y0060041D01*
X0002430Y0060041D01*
X0002063Y0060408D01*
X0002063Y0061142D01*
X0002430Y0061509D01*
X0002063Y0064359D02*
X0002063Y0065460D01*
X0002430Y0065827D01*
X0003164Y0065827D01*
X0003531Y0065460D01*
X0003531Y0064359D01*
X0004265Y0064359D02*
X0002063Y0064359D01*
X0002430Y0066569D02*
X0002063Y0066936D01*
X0002063Y0067670D01*
X0002430Y0068036D01*
X0002797Y0068036D01*
X0003164Y0067670D01*
X0003531Y0068036D01*
X0003898Y0068036D01*
X0004265Y0067670D01*
X0004265Y0066936D01*
X0003898Y0066569D01*
X0003164Y0067303D02*
X0003164Y0067670D01*
X0003898Y0068778D02*
X0003898Y0069145D01*
X0004265Y0069145D01*
X0004265Y0068778D01*
X0003898Y0068778D01*
X0004265Y0069883D02*
X0004265Y0071351D01*
X0004265Y0070617D02*
X0002063Y0070617D01*
X0002797Y0069883D01*
X0002063Y0076170D02*
X0002063Y0077271D01*
X0002430Y0077638D01*
X0003164Y0077638D01*
X0003531Y0077271D01*
X0003531Y0076170D01*
X0004265Y0076170D02*
X0002063Y0076170D01*
X0002797Y0078380D02*
X0002063Y0079114D01*
X0004265Y0079114D01*
X0004265Y0078380D02*
X0004265Y0079848D01*
X0004265Y0080589D02*
X0004265Y0080956D01*
X0003898Y0080956D01*
X0003898Y0080589D01*
X0004265Y0080589D01*
X0003898Y0081694D02*
X0004265Y0082061D01*
X0004265Y0082795D01*
X0003898Y0083162D01*
X0003164Y0083162D01*
X0002797Y0082795D01*
X0002797Y0082428D01*
X0003164Y0081694D01*
X0002063Y0081694D01*
X0002063Y0083162D01*
X0002063Y0086012D02*
X0002063Y0087113D01*
X0002430Y0087480D01*
X0003164Y0087480D01*
X0003531Y0087113D01*
X0003531Y0086012D01*
X0004265Y0086012D02*
X0002063Y0086012D01*
X0002797Y0088222D02*
X0002063Y0088956D01*
X0004265Y0088956D01*
X0004265Y0088222D02*
X0004265Y0089690D01*
X0004265Y0090432D02*
X0004265Y0090799D01*
X0003898Y0090799D01*
X0003898Y0090432D01*
X0004265Y0090432D01*
X0003164Y0091537D02*
X0003164Y0093005D01*
X0002063Y0092638D02*
X0003164Y0091537D01*
X0004265Y0092638D02*
X0002063Y0092638D01*
X0002063Y0095855D02*
X0002063Y0096956D01*
X0002430Y0097323D01*
X0003164Y0097323D01*
X0003531Y0096956D01*
X0003531Y0095855D01*
X0004265Y0095855D02*
X0002063Y0095855D01*
X0002797Y0098065D02*
X0002063Y0098799D01*
X0004265Y0098799D01*
X0004265Y0098065D02*
X0004265Y0099533D01*
X0004265Y0100275D02*
X0003898Y0100275D01*
X0003898Y0100641D01*
X0004265Y0100641D01*
X0004265Y0100275D01*
X0003898Y0101379D02*
X0004265Y0101746D01*
X0004265Y0102480D01*
X0003898Y0102847D01*
X0003531Y0102847D01*
X0003164Y0102480D01*
X0003164Y0102113D01*
X0003164Y0102480D02*
X0002797Y0102847D01*
X0002430Y0102847D01*
X0002063Y0102480D01*
X0002063Y0101746D01*
X0002430Y0101379D01*
X0002063Y0105697D02*
X0002063Y0106798D01*
X0002430Y0107165D01*
X0003164Y0107165D01*
X0003531Y0106798D01*
X0003531Y0105697D01*
X0004265Y0105697D02*
X0002063Y0105697D01*
X0002797Y0107907D02*
X0002063Y0108641D01*
X0004265Y0108641D01*
X0004265Y0107907D02*
X0004265Y0109375D01*
X0004265Y0110117D02*
X0003898Y0110117D01*
X0003898Y0110484D01*
X0004265Y0110484D01*
X0004265Y0110117D01*
X0004265Y0111222D02*
X0002797Y0112690D01*
X0002430Y0112690D01*
X0002063Y0112323D01*
X0002063Y0111589D01*
X0002430Y0111222D01*
X0002063Y0115540D02*
X0002063Y0116641D01*
X0002430Y0117008D01*
X0003164Y0117008D01*
X0003531Y0116641D01*
X0003531Y0115540D01*
X0004265Y0115540D02*
X0002063Y0115540D01*
X0002797Y0117750D02*
X0002063Y0118484D01*
X0004265Y0118484D01*
X0004265Y0117750D02*
X0004265Y0119218D01*
X0004265Y0119960D02*
X0004265Y0120327D01*
X0003898Y0120327D01*
X0003898Y0119960D01*
X0004265Y0119960D01*
X0004265Y0121064D02*
X0004265Y0122532D01*
X0004265Y0121798D02*
X0002063Y0121798D01*
X0002797Y0121064D01*
X0002063Y0125382D02*
X0002063Y0126483D01*
X0002430Y0126850D01*
X0003164Y0126850D01*
X0003531Y0126483D01*
X0003531Y0125382D01*
X0004265Y0125382D02*
X0002063Y0125382D01*
X0002797Y0127592D02*
X0002063Y0128326D01*
X0004265Y0128326D01*
X0004265Y0127592D02*
X0004265Y0129060D01*
X0004265Y0129802D02*
X0004265Y0130169D01*
X0003898Y0130169D01*
X0003898Y0129802D01*
X0004265Y0129802D01*
X0003898Y0130907D02*
X0002430Y0132375D01*
X0003898Y0132375D01*
X0004265Y0132008D01*
X0004265Y0131274D01*
X0003898Y0130907D01*
X0002430Y0130907D01*
X0002063Y0131274D01*
X0002063Y0132008D01*
X0002430Y0132375D01*
X0002063Y0135777D02*
X0003531Y0135777D01*
X0004265Y0136511D01*
X0003531Y0137245D01*
X0002063Y0137245D01*
X0003164Y0137987D02*
X0003898Y0137987D01*
X0004265Y0138354D01*
X0004265Y0139455D01*
X0003898Y0140197D02*
X0004265Y0140564D01*
X0004265Y0141665D01*
X0003898Y0140197D02*
X0003164Y0140197D01*
X0002797Y0140564D01*
X0002797Y0141665D01*
X0002797Y0139455D02*
X0002797Y0138354D01*
X0003164Y0137987D01*
X0014459Y0154643D02*
X0014826Y0154643D01*
X0015193Y0155010D01*
X0015193Y0156845D01*
X0014826Y0156845D02*
X0015560Y0156845D01*
X0016302Y0156478D02*
X0016669Y0156845D01*
X0017403Y0156845D01*
X0017770Y0156478D01*
X0017770Y0156111D01*
X0017403Y0155744D01*
X0017770Y0155377D01*
X0017770Y0155010D01*
X0017403Y0154643D01*
X0016669Y0154643D01*
X0016302Y0155010D01*
X0015699Y0155074D02*
X0015699Y0153606D01*
X0016433Y0152872D01*
X0017166Y0153606D01*
X0017166Y0155074D01*
X0017036Y0155744D02*
X0017403Y0155744D01*
X0018275Y0154340D02*
X0017908Y0153973D01*
X0017908Y0153239D01*
X0018275Y0152872D01*
X0019376Y0152872D01*
X0020118Y0153239D02*
X0020485Y0152872D01*
X0021586Y0152872D01*
X0021586Y0154340D02*
X0020485Y0154340D01*
X0020118Y0153973D01*
X0020118Y0153239D01*
X0019376Y0154340D02*
X0018275Y0154340D01*
X0014459Y0154643D02*
X0014092Y0155010D01*
X0017276Y0142287D02*
X0017276Y0140819D01*
X0017276Y0141553D02*
X0015075Y0141553D01*
X0015808Y0140819D01*
X0015075Y0140077D02*
X0015075Y0139343D01*
X0015075Y0139710D02*
X0016909Y0139710D01*
X0017276Y0139343D01*
X0017276Y0138976D01*
X0016909Y0138609D01*
X0025908Y0152872D02*
X0025541Y0153239D01*
X0025541Y0154707D01*
X0025908Y0155074D01*
X0026642Y0155074D01*
X0027009Y0154707D01*
X0027009Y0153973D02*
X0026275Y0153973D01*
X0027009Y0153239D02*
X0026642Y0152872D01*
X0025908Y0152872D01*
X0027009Y0153239D02*
X0027009Y0153973D01*
X0027751Y0155074D02*
X0029219Y0152872D01*
X0029219Y0155074D01*
X0029961Y0155074D02*
X0029961Y0152872D01*
X0031062Y0152872D01*
X0031429Y0153239D01*
X0031429Y0154707D01*
X0031062Y0155074D01*
X0029961Y0155074D01*
X0027751Y0155074D02*
X0027751Y0152872D01*
X0031218Y0139719D02*
X0032319Y0139719D01*
X0032686Y0139352D01*
X0032686Y0138618D01*
X0032319Y0138251D01*
X0031218Y0138251D01*
X0031218Y0137517D02*
X0031218Y0139719D01*
X0031952Y0138251D02*
X0032686Y0137517D01*
X0033428Y0137517D02*
X0034896Y0137517D01*
X0034162Y0137517D02*
X0034162Y0139719D01*
X0033428Y0138985D01*
X0035013Y0152872D02*
X0035013Y0155074D01*
X0034279Y0155074D02*
X0035747Y0155074D01*
X0036489Y0155074D02*
X0036489Y0152872D01*
X0037956Y0152872D01*
X0038698Y0153239D02*
X0039065Y0152872D01*
X0039799Y0152872D01*
X0040166Y0153239D01*
X0040166Y0153606D01*
X0039799Y0153973D01*
X0039065Y0153973D01*
X0038698Y0154340D01*
X0038698Y0154707D01*
X0039065Y0155074D01*
X0039799Y0155074D01*
X0040166Y0154707D01*
X0040908Y0155074D02*
X0042376Y0155074D01*
X0041642Y0155074D02*
X0041642Y0152872D01*
X0045226Y0152872D02*
X0045226Y0155074D01*
X0046327Y0155074D01*
X0046694Y0154707D01*
X0046694Y0153973D01*
X0046327Y0153606D01*
X0045226Y0153606D01*
X0045960Y0153606D02*
X0046694Y0152872D01*
X0047436Y0153239D02*
X0047803Y0152872D01*
X0048537Y0152872D01*
X0048904Y0153239D01*
X0048904Y0153606D01*
X0048537Y0153973D01*
X0047803Y0153973D01*
X0047436Y0154340D01*
X0047436Y0154707D01*
X0047803Y0155074D01*
X0048537Y0155074D01*
X0048904Y0154707D01*
X0049646Y0155074D02*
X0051114Y0155074D01*
X0050380Y0155074D02*
X0050380Y0152872D01*
X0054026Y0140094D02*
X0053659Y0139727D01*
X0053659Y0138259D01*
X0054026Y0137892D01*
X0054760Y0137892D01*
X0055127Y0138259D01*
X0055869Y0138993D02*
X0057337Y0138993D01*
X0056970Y0137892D02*
X0056970Y0140094D01*
X0055869Y0138993D01*
X0055127Y0139727D02*
X0054760Y0140094D01*
X0054026Y0140094D01*
X0045604Y0121246D02*
X0043402Y0121246D01*
X0043402Y0120512D02*
X0043402Y0121980D01*
X0043769Y0119770D02*
X0043402Y0119403D01*
X0043402Y0118669D01*
X0043769Y0118302D01*
X0044136Y0118302D01*
X0044503Y0118669D01*
X0044503Y0119403D01*
X0044870Y0119770D01*
X0045237Y0119770D01*
X0045604Y0119403D01*
X0045604Y0118669D01*
X0045237Y0118302D01*
X0045604Y0117560D02*
X0044870Y0116826D01*
X0044870Y0117193D02*
X0044870Y0116092D01*
X0045604Y0116092D02*
X0043402Y0116092D01*
X0043402Y0117193D01*
X0043769Y0117560D01*
X0044503Y0117560D01*
X0044870Y0117193D01*
X0039334Y0109133D02*
X0037866Y0109133D01*
X0038600Y0109133D02*
X0038600Y0111335D01*
X0037866Y0110601D01*
X0037124Y0111335D02*
X0037124Y0109133D01*
X0035657Y0111335D01*
X0035657Y0109133D01*
X0034181Y0109133D02*
X0034181Y0111335D01*
X0033447Y0111335D02*
X0034915Y0111335D01*
X0032705Y0110968D02*
X0032705Y0110601D01*
X0032338Y0110234D01*
X0031237Y0110234D01*
X0032338Y0110234D02*
X0032705Y0109867D01*
X0032705Y0109500D01*
X0032338Y0109133D01*
X0031237Y0109133D01*
X0031237Y0111335D01*
X0032338Y0111335D01*
X0032705Y0110968D01*
X0036765Y0081264D02*
X0036765Y0079796D01*
X0036765Y0080530D02*
X0034563Y0080530D01*
X0035297Y0079796D01*
X0034563Y0079054D02*
X0036398Y0079054D01*
X0036765Y0078687D01*
X0036765Y0077953D01*
X0036398Y0077586D01*
X0034563Y0077586D01*
X0033202Y0042376D02*
X0033202Y0040908D01*
X0033202Y0041642D02*
X0031000Y0041642D01*
X0031734Y0040908D01*
X0031367Y0040166D02*
X0031000Y0039799D01*
X0031000Y0038698D01*
X0033202Y0038698D01*
X0033202Y0039799D01*
X0032835Y0040166D01*
X0031367Y0040166D01*
X0034930Y0035594D02*
X0034563Y0035227D01*
X0034563Y0034493D01*
X0034930Y0034126D01*
X0034930Y0033384D02*
X0035664Y0033384D01*
X0036031Y0033017D01*
X0036031Y0031916D01*
X0036765Y0031916D02*
X0034563Y0031916D01*
X0034563Y0033017D01*
X0034930Y0033384D01*
X0036765Y0034126D02*
X0035297Y0035594D01*
X0034930Y0035594D01*
X0036765Y0033384D02*
X0036031Y0032650D01*
X0036765Y0034126D02*
X0036765Y0035594D01*
X0039465Y0035664D02*
X0039465Y0034196D01*
X0041667Y0034196D01*
X0041667Y0035664D01*
X0041667Y0036406D02*
X0041667Y0037507D01*
X0041300Y0037874D01*
X0039832Y0037874D01*
X0039465Y0037507D01*
X0039465Y0036406D01*
X0041667Y0036406D01*
X0041667Y0033454D02*
X0041667Y0031987D01*
X0039465Y0031987D01*
X0040566Y0034196D02*
X0040566Y0034930D01*
X0040199Y0029036D02*
X0040199Y0028669D01*
X0040933Y0027935D01*
X0041667Y0027935D02*
X0040199Y0027935D01*
X0040566Y0027193D02*
X0040933Y0027193D01*
X0040933Y0025725D01*
X0041300Y0025725D02*
X0040566Y0025725D01*
X0040199Y0026092D01*
X0040199Y0026826D01*
X0040566Y0027193D01*
X0041667Y0026092D02*
X0041300Y0025725D01*
X0041667Y0026092D02*
X0041667Y0026826D01*
X0041300Y0024983D02*
X0040199Y0024983D01*
X0041300Y0024983D02*
X0041667Y0024616D01*
X0041300Y0024249D01*
X0041667Y0023882D01*
X0041300Y0023515D01*
X0040199Y0023515D01*
X0040566Y0022773D02*
X0040199Y0022406D01*
X0040199Y0021672D01*
X0040566Y0021305D01*
X0041300Y0021305D01*
X0041667Y0021672D01*
X0041667Y0022406D01*
X0041300Y0022773D01*
X0040566Y0022773D01*
X0040566Y0020563D02*
X0039832Y0020563D01*
X0039465Y0020197D01*
X0039465Y0019096D01*
X0041667Y0019096D01*
X0040933Y0019096D02*
X0040933Y0020197D01*
X0040566Y0020563D01*
X0064287Y0021038D02*
X0064287Y0021772D01*
X0064654Y0022139D01*
X0065021Y0022139D01*
X0065388Y0021772D01*
X0065755Y0022139D01*
X0066122Y0022139D01*
X0066489Y0021772D01*
X0066489Y0021038D01*
X0066122Y0020671D01*
X0066122Y0019933D02*
X0066489Y0019933D01*
X0066489Y0019566D01*
X0066122Y0019566D01*
X0066122Y0019933D01*
X0066489Y0018824D02*
X0066489Y0017356D01*
X0065021Y0018824D01*
X0064654Y0018824D01*
X0064287Y0018457D01*
X0064287Y0017723D01*
X0064654Y0017356D01*
X0064654Y0016614D02*
X0065388Y0016614D01*
X0065755Y0016247D01*
X0065755Y0015146D01*
X0066489Y0015146D02*
X0064287Y0015146D01*
X0064287Y0016247D01*
X0064654Y0016614D01*
X0064654Y0020671D02*
X0064287Y0021038D01*
X0065388Y0021405D02*
X0065388Y0021772D01*
X0065755Y0024989D02*
X0065755Y0026090D01*
X0065388Y0026457D01*
X0064654Y0026457D01*
X0064287Y0026090D01*
X0064287Y0024989D01*
X0066489Y0024989D01*
X0066489Y0027198D02*
X0065021Y0028666D01*
X0064654Y0028666D01*
X0064287Y0028299D01*
X0064287Y0027565D01*
X0064654Y0027198D01*
X0066122Y0029408D02*
X0066122Y0029775D01*
X0066489Y0029775D01*
X0066489Y0029408D01*
X0066122Y0029408D01*
X0066489Y0028666D02*
X0066489Y0027198D01*
X0065388Y0030513D02*
X0065388Y0031981D01*
X0064287Y0031614D02*
X0065388Y0030513D01*
X0066489Y0031614D02*
X0064287Y0031614D01*
X0064287Y0034831D02*
X0064287Y0035932D01*
X0064654Y0036299D01*
X0065388Y0036299D01*
X0065755Y0035932D01*
X0065755Y0034831D01*
X0066489Y0034831D02*
X0064287Y0034831D01*
X0064654Y0037041D02*
X0064287Y0037408D01*
X0064287Y0038142D01*
X0064654Y0038509D01*
X0065021Y0038509D01*
X0066489Y0037041D01*
X0066489Y0038509D01*
X0066489Y0039251D02*
X0066489Y0039618D01*
X0066122Y0039618D01*
X0066122Y0039251D01*
X0066489Y0039251D01*
X0066122Y0040356D02*
X0066489Y0040723D01*
X0066489Y0041457D01*
X0066122Y0041824D01*
X0065388Y0041824D01*
X0065021Y0041457D01*
X0065021Y0041090D01*
X0065388Y0040356D01*
X0064287Y0040356D01*
X0064287Y0041824D01*
X0064287Y0044674D02*
X0064287Y0045775D01*
X0064654Y0046142D01*
X0065388Y0046142D01*
X0065755Y0045775D01*
X0065755Y0044674D01*
X0066489Y0044674D02*
X0064287Y0044674D01*
X0064654Y0046884D02*
X0064287Y0047250D01*
X0064287Y0047984D01*
X0064654Y0048351D01*
X0065021Y0048351D01*
X0065388Y0047984D01*
X0065755Y0048351D01*
X0066122Y0048351D01*
X0066489Y0047984D01*
X0066489Y0047250D01*
X0066122Y0046884D01*
X0065388Y0047617D02*
X0065388Y0047984D01*
X0066122Y0049093D02*
X0066122Y0049460D01*
X0066489Y0049460D01*
X0066489Y0049093D01*
X0066122Y0049093D01*
X0066122Y0050198D02*
X0066489Y0050565D01*
X0066489Y0051299D01*
X0066122Y0051666D01*
X0065388Y0051666D01*
X0065021Y0051299D01*
X0065021Y0050932D01*
X0065388Y0050198D01*
X0064287Y0050198D01*
X0064287Y0051666D01*
X0064287Y0054516D02*
X0064287Y0055617D01*
X0064654Y0055984D01*
X0065388Y0055984D01*
X0065755Y0055617D01*
X0065755Y0054516D01*
X0066489Y0054516D02*
X0064287Y0054516D01*
X0064654Y0056726D02*
X0064287Y0057093D01*
X0064287Y0057827D01*
X0064654Y0058194D01*
X0065021Y0058194D01*
X0065388Y0057827D01*
X0065755Y0058194D01*
X0066122Y0058194D01*
X0066489Y0057827D01*
X0066489Y0057093D01*
X0066122Y0056726D01*
X0065388Y0057460D02*
X0065388Y0057827D01*
X0066122Y0058936D02*
X0066122Y0059303D01*
X0066489Y0059303D01*
X0066489Y0058936D01*
X0066122Y0058936D01*
X0066122Y0060041D02*
X0066489Y0060408D01*
X0066489Y0061142D01*
X0066122Y0061509D01*
X0065755Y0061509D01*
X0065388Y0061142D01*
X0065388Y0060041D01*
X0066122Y0060041D01*
X0065388Y0060041D02*
X0064654Y0060775D01*
X0064287Y0061509D01*
X0064287Y0064359D02*
X0064287Y0065460D01*
X0064654Y0065827D01*
X0065388Y0065827D01*
X0065755Y0065460D01*
X0065755Y0064359D01*
X0066489Y0064359D02*
X0064287Y0064359D01*
X0064654Y0066569D02*
X0064287Y0066936D01*
X0064287Y0067669D01*
X0064654Y0068036D01*
X0065021Y0068036D01*
X0065388Y0067669D01*
X0065755Y0068036D01*
X0066122Y0068036D01*
X0066489Y0067669D01*
X0066489Y0066936D01*
X0066122Y0066569D01*
X0065388Y0067303D02*
X0065388Y0067669D01*
X0066122Y0068778D02*
X0066122Y0069145D01*
X0066489Y0069145D01*
X0066489Y0068778D01*
X0066122Y0068778D01*
X0066122Y0069883D02*
X0066489Y0069883D01*
X0066122Y0069883D02*
X0064654Y0071351D01*
X0064287Y0071351D01*
X0064287Y0069883D01*
X0064287Y0076170D02*
X0064287Y0077271D01*
X0064654Y0077638D01*
X0065388Y0077638D01*
X0065755Y0077271D01*
X0065755Y0076170D01*
X0066489Y0076170D02*
X0064287Y0076170D01*
X0065021Y0078380D02*
X0064287Y0079114D01*
X0066489Y0079114D01*
X0066489Y0079847D02*
X0066489Y0078380D01*
X0066489Y0080589D02*
X0066122Y0080589D01*
X0066122Y0080956D01*
X0066489Y0080956D01*
X0066489Y0080589D01*
X0066122Y0081694D02*
X0066489Y0082061D01*
X0066489Y0082795D01*
X0066122Y0083162D01*
X0065755Y0083162D01*
X0065388Y0082795D01*
X0065388Y0081694D01*
X0066122Y0081694D01*
X0065388Y0081694D02*
X0064654Y0082428D01*
X0064287Y0083162D01*
X0064287Y0086012D02*
X0064287Y0087113D01*
X0064654Y0087480D01*
X0065388Y0087480D01*
X0065755Y0087113D01*
X0065755Y0086012D01*
X0066489Y0086012D02*
X0064287Y0086012D01*
X0065021Y0088222D02*
X0064287Y0088956D01*
X0066489Y0088956D01*
X0066489Y0088222D02*
X0066489Y0089690D01*
X0066489Y0090432D02*
X0066489Y0090799D01*
X0066122Y0090799D01*
X0066122Y0090432D01*
X0066489Y0090432D01*
X0066489Y0091537D02*
X0066122Y0091537D01*
X0064654Y0093005D01*
X0064287Y0093005D01*
X0064287Y0091537D01*
X0064287Y0094566D02*
X0064287Y0095667D01*
X0064654Y0096034D01*
X0065388Y0096034D01*
X0065755Y0095667D01*
X0065755Y0094566D01*
X0065755Y0095300D02*
X0066489Y0096034D01*
X0066122Y0096776D02*
X0066489Y0097142D01*
X0066489Y0097876D01*
X0065755Y0098243D02*
X0065755Y0096776D01*
X0066122Y0096776D02*
X0065388Y0096776D01*
X0065021Y0097142D01*
X0065021Y0097876D01*
X0065388Y0098243D01*
X0065755Y0098243D01*
X0065388Y0098985D02*
X0065021Y0099352D01*
X0065021Y0100453D01*
X0065388Y0101195D02*
X0065021Y0101562D01*
X0065021Y0102296D01*
X0065388Y0102663D01*
X0065755Y0102663D01*
X0065755Y0101195D01*
X0066122Y0101195D02*
X0065388Y0101195D01*
X0066122Y0101195D02*
X0066489Y0101562D01*
X0066489Y0102296D01*
X0066122Y0103772D02*
X0066489Y0104139D01*
X0066122Y0103772D02*
X0064654Y0103772D01*
X0065021Y0103405D02*
X0065021Y0104139D01*
X0064287Y0105513D02*
X0064287Y0106981D01*
X0064287Y0106247D02*
X0066489Y0106247D01*
X0066122Y0107723D02*
X0065388Y0107723D01*
X0065021Y0108090D01*
X0065021Y0108824D01*
X0065388Y0109191D01*
X0065755Y0109191D01*
X0065755Y0107723D01*
X0066122Y0107723D02*
X0066489Y0108090D01*
X0066489Y0108824D01*
X0066489Y0109933D02*
X0066489Y0111034D01*
X0066122Y0111401D01*
X0065755Y0111034D01*
X0065755Y0110300D01*
X0065388Y0109933D01*
X0065021Y0110300D01*
X0065021Y0111401D01*
X0065021Y0112143D02*
X0065021Y0112877D01*
X0064654Y0112510D02*
X0066122Y0112510D01*
X0066489Y0112877D01*
X0066489Y0115540D02*
X0064287Y0115540D01*
X0064287Y0116641D01*
X0064654Y0117008D01*
X0065388Y0117008D01*
X0065755Y0116641D01*
X0065755Y0115540D01*
X0066489Y0117750D02*
X0065021Y0119218D01*
X0064654Y0119218D01*
X0064287Y0118851D01*
X0064287Y0118117D01*
X0064654Y0117750D01*
X0066122Y0119960D02*
X0066122Y0120327D01*
X0066489Y0120327D01*
X0066489Y0119960D01*
X0066122Y0119960D01*
X0066489Y0119218D02*
X0066489Y0117750D01*
X0066489Y0121064D02*
X0066122Y0121064D01*
X0064654Y0122532D01*
X0064287Y0122532D01*
X0064287Y0121064D01*
X0064287Y0125382D02*
X0064287Y0126483D01*
X0064654Y0126850D01*
X0065388Y0126850D01*
X0065755Y0126483D01*
X0065755Y0125382D01*
X0066489Y0125382D02*
X0064287Y0125382D01*
X0064654Y0127592D02*
X0064287Y0127959D01*
X0064287Y0128693D01*
X0064654Y0129060D01*
X0065021Y0129060D01*
X0066489Y0127592D01*
X0066489Y0129060D01*
X0066489Y0129802D02*
X0066489Y0130169D01*
X0066122Y0130169D01*
X0066122Y0129802D01*
X0066489Y0129802D01*
X0066122Y0130907D02*
X0066489Y0131274D01*
X0066489Y0132008D01*
X0066122Y0132375D01*
X0065755Y0132375D01*
X0065388Y0132008D01*
X0065388Y0130907D01*
X0066122Y0130907D01*
X0065388Y0130907D02*
X0064654Y0131641D01*
X0064287Y0132375D01*
X0064654Y0135777D02*
X0064287Y0136144D01*
X0064287Y0136878D01*
X0064654Y0137245D01*
X0065388Y0137245D02*
X0065388Y0136511D01*
X0065388Y0137245D02*
X0066122Y0137245D01*
X0066489Y0136878D01*
X0066489Y0136144D01*
X0066122Y0135777D01*
X0064654Y0135777D01*
X0064287Y0137987D02*
X0066489Y0139455D01*
X0064287Y0139455D01*
X0064287Y0140197D02*
X0064287Y0141298D01*
X0064654Y0141665D01*
X0066122Y0141665D01*
X0066489Y0141298D01*
X0066489Y0140197D01*
X0064287Y0140197D01*
X0065075Y0140077D02*
X0065075Y0139343D01*
X0065075Y0139710D02*
X0066909Y0139710D01*
X0067276Y0139343D01*
X0067276Y0138976D01*
X0066909Y0138609D01*
X0066489Y0137987D02*
X0064287Y0137987D01*
X0065441Y0140819D02*
X0065075Y0141186D01*
X0065075Y0141920D01*
X0065441Y0142287D01*
X0065808Y0142287D01*
X0067276Y0140819D01*
X0067276Y0142287D01*
X0066122Y0100453D02*
X0065755Y0100086D01*
X0065755Y0099352D01*
X0065388Y0098985D01*
X0066489Y0100086D02*
X0066122Y0100453D01*
X0066489Y0100086D02*
X0066489Y0098985D01*
X0066489Y0094566D02*
X0064287Y0094566D01*
X0037956Y0155074D02*
X0036489Y0155074D01*
X0036489Y0153973D02*
X0037222Y0153973D01*
X0004265Y0112690D02*
X0004265Y0111222D01*
X0004265Y0031981D02*
X0004265Y0030513D01*
X0004265Y0022139D02*
X0004265Y0020671D01*
X0064287Y0011929D02*
X0065388Y0010828D01*
X0065388Y0012296D01*
X0066122Y0010090D02*
X0066489Y0010090D01*
X0066489Y0009723D01*
X0066122Y0009723D01*
X0066122Y0010090D01*
X0066122Y0008981D02*
X0066489Y0008614D01*
X0066489Y0007880D01*
X0066122Y0007513D01*
X0065388Y0008247D02*
X0065388Y0008614D01*
X0065755Y0008981D01*
X0066122Y0008981D01*
X0065388Y0008614D02*
X0065021Y0008981D01*
X0064654Y0008981D01*
X0064287Y0008614D01*
X0064287Y0007880D01*
X0064654Y0007513D01*
X0064654Y0006771D02*
X0065388Y0006771D01*
X0065755Y0006404D01*
X0065755Y0005304D01*
X0066489Y0005304D02*
X0064287Y0005304D01*
X0064287Y0006404D01*
X0064654Y0006771D01*
X0064287Y0011929D02*
X0066489Y0011929D01*
D12*
X0046379Y0006135D02*
X0046379Y0005885D01*
X0046379Y0005385D02*
X0046379Y0004384D01*
X0046129Y0004384D02*
X0046630Y0004384D01*
X0046379Y0005385D02*
X0046129Y0005385D01*
X0045657Y0005134D02*
X0045657Y0004884D01*
X0044656Y0004884D01*
X0044656Y0004634D02*
X0044656Y0005134D01*
X0044906Y0005385D01*
X0045406Y0005385D01*
X0045657Y0005134D01*
X0045406Y0004384D02*
X0044906Y0004384D01*
X0044656Y0004634D01*
X0044183Y0004384D02*
X0044183Y0005885D01*
X0043183Y0005885D02*
X0043183Y0004384D01*
X0043683Y0004884D01*
X0044183Y0004384D01*
X0042719Y0003716D02*
X0042352Y0003533D01*
X0041985Y0003166D01*
X0042536Y0003166D01*
X0042719Y0002982D01*
X0042719Y0002799D01*
X0042536Y0002615D01*
X0042169Y0002615D01*
X0041985Y0002799D01*
X0041985Y0003166D01*
X0041615Y0002615D02*
X0040881Y0002615D01*
X0041248Y0002615D02*
X0041248Y0003716D01*
X0040881Y0003349D01*
X0040510Y0003533D02*
X0040510Y0002799D01*
X0040326Y0002615D01*
X0039959Y0002615D01*
X0039776Y0002799D01*
X0040510Y0003533D01*
X0040326Y0003716D01*
X0039959Y0003716D01*
X0039776Y0003533D01*
X0039776Y0002799D01*
X0039405Y0002615D02*
X0038671Y0002615D01*
X0039405Y0003349D01*
X0039405Y0003533D01*
X0039221Y0003716D01*
X0038854Y0003716D01*
X0038671Y0003533D01*
X0037554Y0004134D02*
X0037554Y0005385D01*
X0037554Y0004384D02*
X0036803Y0004384D01*
X0036553Y0004634D01*
X0036553Y0005385D01*
X0036081Y0005134D02*
X0035830Y0005385D01*
X0035080Y0005385D01*
X0035080Y0005885D02*
X0035080Y0004384D01*
X0035830Y0004384D01*
X0036081Y0004634D01*
X0036081Y0005134D01*
X0035724Y0003716D02*
X0035724Y0002615D01*
X0035353Y0002615D02*
X0034803Y0002615D01*
X0034619Y0002799D01*
X0034619Y0003166D01*
X0034803Y0003349D01*
X0035353Y0003349D01*
X0035353Y0002432D01*
X0035170Y0002248D01*
X0034986Y0002248D01*
X0034250Y0002615D02*
X0033883Y0002615D01*
X0034066Y0002615D02*
X0034066Y0003349D01*
X0033883Y0003349D01*
X0033512Y0003349D02*
X0033329Y0003349D01*
X0032962Y0002982D01*
X0032962Y0002615D02*
X0032962Y0003349D01*
X0032591Y0003349D02*
X0032591Y0002432D01*
X0032407Y0002248D01*
X0032224Y0002248D01*
X0032040Y0002615D02*
X0032591Y0002615D01*
X0032040Y0002615D02*
X0031857Y0002799D01*
X0031857Y0003349D01*
X0031486Y0003166D02*
X0031486Y0002799D01*
X0031302Y0002615D01*
X0030752Y0002615D01*
X0030752Y0002248D02*
X0030752Y0003349D01*
X0031302Y0003349D01*
X0031486Y0003166D01*
X0031411Y0004384D02*
X0030910Y0004384D01*
X0030660Y0004634D01*
X0030660Y0005134D01*
X0030910Y0005385D01*
X0031411Y0005385D01*
X0031661Y0005134D01*
X0031661Y0004884D01*
X0030660Y0004884D01*
X0030188Y0005134D02*
X0030188Y0004384D01*
X0030188Y0005134D02*
X0029937Y0005385D01*
X0029187Y0005385D01*
X0029187Y0004384D01*
X0028714Y0004384D02*
X0027964Y0004384D01*
X0027713Y0004634D01*
X0027713Y0005134D01*
X0027964Y0005385D01*
X0028714Y0005385D01*
X0028714Y0004134D01*
X0028464Y0003883D01*
X0028214Y0003883D01*
X0028542Y0003533D02*
X0028542Y0002799D01*
X0028726Y0002615D01*
X0029093Y0002615D01*
X0029276Y0002799D01*
X0029647Y0002799D02*
X0029831Y0002615D01*
X0030198Y0002615D01*
X0030381Y0002799D01*
X0030381Y0003166D01*
X0030198Y0003349D01*
X0029831Y0003349D01*
X0029647Y0003166D01*
X0029647Y0002799D01*
X0029276Y0003533D02*
X0029093Y0003716D01*
X0028726Y0003716D01*
X0028542Y0003533D01*
X0027066Y0003533D02*
X0027066Y0003166D01*
X0026883Y0002982D01*
X0026883Y0003349D01*
X0026516Y0003349D01*
X0026516Y0002982D01*
X0026883Y0002982D01*
X0027066Y0002799D02*
X0026883Y0002615D01*
X0026516Y0002615D01*
X0026332Y0002799D01*
X0026332Y0003533D01*
X0026516Y0003716D01*
X0026883Y0003716D01*
X0027066Y0003533D01*
X0026981Y0004384D02*
X0026981Y0005385D01*
X0026731Y0005385D01*
X0026259Y0005385D02*
X0025508Y0005385D01*
X0025258Y0005134D01*
X0025508Y0004884D01*
X0026009Y0004884D01*
X0026259Y0004634D01*
X0026009Y0004384D01*
X0025258Y0004384D01*
X0024786Y0004884D02*
X0023785Y0004884D01*
X0023785Y0004634D02*
X0023785Y0005134D01*
X0024035Y0005385D01*
X0024535Y0005385D01*
X0024786Y0005134D01*
X0024786Y0004884D01*
X0024535Y0004384D02*
X0024035Y0004384D01*
X0023785Y0004634D01*
X0023312Y0004634D02*
X0023312Y0005635D01*
X0023062Y0005885D01*
X0022311Y0005885D01*
X0022311Y0004384D01*
X0023062Y0004384D01*
X0023312Y0004634D01*
X0026731Y0004384D02*
X0027232Y0004384D01*
X0026981Y0005885D02*
X0026981Y0006135D01*
X0032133Y0005134D02*
X0032133Y0004634D01*
X0032383Y0004384D01*
X0033134Y0004384D01*
X0033134Y0005885D01*
X0033134Y0005385D02*
X0032383Y0005385D01*
X0032133Y0005134D01*
X0034066Y0003900D02*
X0034066Y0003716D01*
X0035724Y0003166D02*
X0035908Y0003349D01*
X0036275Y0003349D01*
X0036458Y0003166D01*
X0036458Y0002615D01*
X0037013Y0002799D02*
X0037013Y0003533D01*
X0037196Y0003349D02*
X0036829Y0003349D01*
X0037053Y0003883D02*
X0037304Y0003883D01*
X0037554Y0004134D01*
X0037013Y0002799D02*
X0037196Y0002615D01*
X0039499Y0004384D02*
X0040500Y0004384D01*
X0040973Y0004384D02*
X0041223Y0004384D01*
X0041223Y0004634D01*
X0040973Y0004634D01*
X0040973Y0004384D01*
X0040500Y0005635D02*
X0039499Y0004634D01*
X0039499Y0004384D01*
X0039499Y0005885D02*
X0040500Y0005885D01*
X0040500Y0005635D01*
D13*
X0038008Y0020882D02*
X0030134Y0020882D01*
X0030134Y0028756D01*
X0034071Y0028756D01*
X0034071Y0024819D01*
X0034071Y0028756D02*
X0038008Y0028756D01*
X0038008Y0036630D01*
X0038008Y0052378D01*
X0030134Y0052378D01*
X0030134Y0036630D01*
X0038008Y0036630D01*
X0030134Y0036630D01*
X0030134Y0028756D01*
X0038008Y0028756D02*
X0038008Y0020882D01*
X0043126Y0054740D02*
X0025016Y0054740D01*
X0025016Y0093323D01*
X0043126Y0093323D01*
X0043126Y0054740D01*
X0025958Y0090961D02*
X0025960Y0091036D01*
X0025966Y0091111D01*
X0025976Y0091185D01*
X0025990Y0091259D01*
X0026007Y0091332D01*
X0026029Y0091403D01*
X0026054Y0091474D01*
X0026083Y0091543D01*
X0026115Y0091611D01*
X0026151Y0091676D01*
X0026191Y0091740D01*
X0026234Y0091802D01*
X0026280Y0091861D01*
X0026329Y0091918D01*
X0026381Y0091972D01*
X0026435Y0092023D01*
X0026493Y0092071D01*
X0026552Y0092116D01*
X0026615Y0092158D01*
X0026679Y0092197D01*
X0026745Y0092232D01*
X0026813Y0092264D01*
X0026883Y0092292D01*
X0026953Y0092316D01*
X0027026Y0092337D01*
X0027099Y0092353D01*
X0027173Y0092366D01*
X0027247Y0092375D01*
X0027322Y0092380D01*
X0027397Y0092381D01*
X0027472Y0092378D01*
X0027546Y0092371D01*
X0027620Y0092360D01*
X0027694Y0092345D01*
X0027767Y0092327D01*
X0027838Y0092304D01*
X0027908Y0092278D01*
X0027977Y0092248D01*
X0028044Y0092215D01*
X0028110Y0092178D01*
X0028173Y0092138D01*
X0028234Y0092094D01*
X0028292Y0092047D01*
X0028348Y0091998D01*
X0028402Y0091945D01*
X0028452Y0091890D01*
X0028500Y0091832D01*
X0028544Y0091771D01*
X0028585Y0091709D01*
X0028623Y0091644D01*
X0028657Y0091577D01*
X0028688Y0091509D01*
X0028715Y0091439D01*
X0028739Y0091368D01*
X0028758Y0091295D01*
X0028774Y0091222D01*
X0028786Y0091148D01*
X0028794Y0091073D01*
X0028798Y0090998D01*
X0028798Y0090924D01*
X0028794Y0090849D01*
X0028786Y0090774D01*
X0028774Y0090700D01*
X0028758Y0090627D01*
X0028739Y0090554D01*
X0028715Y0090483D01*
X0028688Y0090413D01*
X0028657Y0090345D01*
X0028623Y0090278D01*
X0028585Y0090213D01*
X0028544Y0090151D01*
X0028500Y0090090D01*
X0028452Y0090032D01*
X0028402Y0089977D01*
X0028348Y0089924D01*
X0028292Y0089875D01*
X0028234Y0089828D01*
X0028173Y0089784D01*
X0028110Y0089744D01*
X0028044Y0089707D01*
X0027977Y0089674D01*
X0027908Y0089644D01*
X0027838Y0089618D01*
X0027767Y0089595D01*
X0027694Y0089577D01*
X0027620Y0089562D01*
X0027546Y0089551D01*
X0027472Y0089544D01*
X0027397Y0089541D01*
X0027322Y0089542D01*
X0027247Y0089547D01*
X0027173Y0089556D01*
X0027099Y0089569D01*
X0027026Y0089585D01*
X0026953Y0089606D01*
X0026883Y0089630D01*
X0026813Y0089658D01*
X0026745Y0089690D01*
X0026679Y0089725D01*
X0026615Y0089764D01*
X0026552Y0089806D01*
X0026493Y0089851D01*
X0026435Y0089899D01*
X0026381Y0089950D01*
X0026329Y0090004D01*
X0026280Y0090061D01*
X0026234Y0090120D01*
X0026191Y0090182D01*
X0026151Y0090246D01*
X0026115Y0090311D01*
X0026083Y0090379D01*
X0026054Y0090448D01*
X0026029Y0090519D01*
X0026007Y0090590D01*
X0025990Y0090663D01*
X0025976Y0090737D01*
X0025966Y0090811D01*
X0025960Y0090886D01*
X0025958Y0090961D01*
X0027181Y0107890D02*
X0027181Y0130724D01*
X0040961Y0130724D01*
X0040961Y0107890D01*
X0027181Y0107890D01*
X0031118Y0113402D02*
X0031118Y0125213D01*
X0037024Y0125213D01*
X0037024Y0113402D01*
X0031118Y0113402D01*
X0030724Y0133087D02*
X0030724Y0140961D01*
X0014976Y0140961D01*
X0014976Y0133087D01*
X0030724Y0133087D01*
X0037417Y0133087D02*
X0037417Y0140961D01*
X0053165Y0140961D01*
X0053165Y0133087D01*
X0037417Y0133087D01*
X0054071Y0144031D02*
X0054071Y0154031D01*
X0014071Y0154031D01*
X0014071Y0144031D01*
X0054071Y0144031D01*
X0064071Y0144031D01*
X0064071Y0004031D01*
X0054071Y0004031D01*
X0054071Y0144031D01*
X0014071Y0144031D02*
X0004071Y0144031D01*
X0004071Y0004031D01*
X0014071Y0004031D01*
X0014071Y0144031D01*
M02*
