G75*
%MOIN*%
%OFA0B0*%
%FSLAX25Y25*%
%IPPOS*%
%LPD*%
%AMOC8*
5,1,8,0,0,1.08239X$1,22.5*
%
%ADD10R,0.05512X0.05906*%
%ADD11R,0.05937X0.05937*%
%ADD12OC8,0.05937*%
%ADD13C,0.03569*%
%ADD14C,0.01000*%
D10*
X0030035Y0077969D03*
X0030035Y0085843D03*
X0030035Y0093717D03*
X0038106Y0093717D03*
X0038106Y0085843D03*
X0038106Y0077969D03*
D11*
X0059071Y0139031D03*
X0019071Y0149031D03*
X0009071Y0139031D03*
D12*
X0009071Y0129031D03*
X0009071Y0119031D03*
X0009071Y0109031D03*
X0009071Y0099031D03*
X0009071Y0089031D03*
X0009071Y0079031D03*
X0009071Y0069031D03*
X0009071Y0059031D03*
X0009071Y0049031D03*
X0009071Y0039031D03*
X0009071Y0029031D03*
X0009071Y0019031D03*
X0009071Y0009031D03*
X0059071Y0009031D03*
X0059071Y0019031D03*
X0059071Y0029031D03*
X0059071Y0039031D03*
X0059071Y0049031D03*
X0059071Y0059031D03*
X0059071Y0069031D03*
X0059071Y0079031D03*
X0059071Y0089031D03*
X0059071Y0099031D03*
X0059071Y0109031D03*
X0059071Y0119031D03*
X0059071Y0129031D03*
X0049071Y0149031D03*
X0039071Y0149031D03*
X0029071Y0149031D03*
D13*
X0030724Y0127181D03*
X0040567Y0131118D03*
X0049228Y0109465D03*
X0048441Y0095685D03*
X0038598Y0068126D03*
X0045291Y0042535D03*
X0049228Y0028756D03*
X0022850Y0042535D03*
X0018913Y0028756D03*
X0022850Y0105528D03*
X0018913Y0119307D03*
D14*
X0005894Y0016172D02*
X0005894Y0011891D01*
X0007303Y0013300D01*
X0010839Y0013300D01*
X0013339Y0010800D01*
X0013339Y0007263D01*
X0011970Y0005894D01*
X0056172Y0005894D01*
X0054802Y0007263D01*
X0054802Y0010800D01*
X0057303Y0013300D01*
X0060839Y0013300D01*
X0062248Y0011891D01*
X0062248Y0016172D01*
X0060839Y0014763D01*
X0057303Y0014763D01*
X0054802Y0017263D01*
X0054802Y0020754D01*
X0049872Y0025684D01*
X0049842Y0025672D01*
X0048615Y0025672D01*
X0047481Y0026141D01*
X0046614Y0027009D01*
X0046144Y0028142D01*
X0046144Y0029369D01*
X0046614Y0030503D01*
X0047481Y0031371D01*
X0048615Y0031840D01*
X0049842Y0031840D01*
X0050975Y0031371D01*
X0051843Y0030503D01*
X0052313Y0029369D01*
X0052313Y0028335D01*
X0057348Y0023300D01*
X0060839Y0023300D01*
X0062248Y0021891D01*
X0062248Y0026172D01*
X0060839Y0024763D01*
X0057303Y0024763D01*
X0054802Y0027263D01*
X0054802Y0030479D01*
X0045830Y0039451D01*
X0044678Y0039451D01*
X0043544Y0039921D01*
X0042677Y0040788D01*
X0042207Y0041922D01*
X0042207Y0043149D01*
X0042677Y0044283D01*
X0043544Y0045150D01*
X0044678Y0045620D01*
X0045905Y0045620D01*
X0047038Y0045150D01*
X0047906Y0044283D01*
X0048376Y0043149D01*
X0048376Y0041997D01*
X0057188Y0033185D01*
X0057303Y0033300D01*
X0060839Y0033300D01*
X0062248Y0031891D01*
X0062248Y0036172D01*
X0060839Y0034763D01*
X0057303Y0034763D01*
X0054802Y0037263D01*
X0054802Y0040800D01*
X0057303Y0043300D01*
X0060839Y0043300D01*
X0062248Y0041891D01*
X0062248Y0046172D01*
X0060839Y0044763D01*
X0057303Y0044763D01*
X0054802Y0047263D01*
X0054802Y0050800D01*
X0057303Y0053300D01*
X0060839Y0053300D01*
X0062248Y0051891D01*
X0062248Y0056172D01*
X0060839Y0054763D01*
X0057303Y0054763D01*
X0054802Y0057263D01*
X0054802Y0060800D01*
X0057303Y0063300D01*
X0060839Y0063300D01*
X0062248Y0061891D01*
X0062248Y0066172D01*
X0060839Y0064763D01*
X0057303Y0064763D01*
X0054802Y0067263D01*
X0054802Y0070800D01*
X0057303Y0073300D01*
X0060839Y0073300D01*
X0062248Y0071891D01*
X0062248Y0076172D01*
X0060839Y0074763D01*
X0057303Y0074763D01*
X0054802Y0077263D01*
X0054802Y0080800D01*
X0057303Y0083300D01*
X0060839Y0083300D01*
X0062248Y0081891D01*
X0062248Y0086172D01*
X0060839Y0084763D01*
X0057303Y0084763D01*
X0054802Y0087263D01*
X0054802Y0090800D01*
X0057303Y0093300D01*
X0060839Y0093300D01*
X0062248Y0091891D01*
X0062248Y0096172D01*
X0060839Y0094763D01*
X0057303Y0094763D01*
X0054802Y0097263D01*
X0054802Y0099791D01*
X0045727Y0099791D01*
X0041790Y0103728D01*
X0040735Y0104782D01*
X0040735Y0128034D01*
X0039953Y0128034D01*
X0038820Y0128503D01*
X0037952Y0129371D01*
X0037483Y0130505D01*
X0037483Y0131732D01*
X0037952Y0132865D01*
X0038820Y0133733D01*
X0039953Y0134202D01*
X0041180Y0134202D01*
X0042314Y0133733D01*
X0042704Y0133343D01*
X0042704Y0142853D01*
X0040794Y0144763D01*
X0037303Y0144763D01*
X0034802Y0147263D01*
X0034802Y0150800D01*
X0036015Y0152012D01*
X0032410Y0152012D01*
X0033539Y0150882D01*
X0033539Y0149516D01*
X0029555Y0149516D01*
X0029555Y0148547D01*
X0029555Y0144563D01*
X0030922Y0144563D01*
X0033539Y0147181D01*
X0033539Y0148547D01*
X0029555Y0148547D01*
X0028587Y0148547D01*
X0028587Y0144563D01*
X0027220Y0144563D01*
X0024602Y0147181D01*
X0024602Y0148547D01*
X0028587Y0148547D01*
X0028587Y0149516D01*
X0024602Y0149516D01*
X0024602Y0150882D01*
X0025732Y0152012D01*
X0023339Y0152012D01*
X0023339Y0145525D01*
X0022578Y0144763D01*
X0015564Y0144763D01*
X0014802Y0145525D01*
X0014802Y0152012D01*
X0005894Y0152012D01*
X0005894Y0143300D01*
X0012578Y0143300D01*
X0013339Y0142538D01*
X0013339Y0137309D01*
X0031835Y0118813D01*
X0031835Y0097969D01*
X0033330Y0097969D01*
X0033989Y0097311D01*
X0034150Y0097590D01*
X0034429Y0097870D01*
X0034771Y0098067D01*
X0035153Y0098169D01*
X0037606Y0098169D01*
X0037606Y0094217D01*
X0038606Y0094217D01*
X0038606Y0098169D01*
X0041060Y0098169D01*
X0041441Y0098067D01*
X0041783Y0097870D01*
X0042062Y0097590D01*
X0042260Y0097248D01*
X0042362Y0096867D01*
X0042362Y0094216D01*
X0038606Y0094216D01*
X0038606Y0093217D01*
X0042362Y0093217D01*
X0042362Y0090566D01*
X0042260Y0090185D01*
X0042062Y0089843D01*
X0041999Y0089780D01*
X0042062Y0089716D01*
X0042260Y0089374D01*
X0042362Y0088993D01*
X0042362Y0086342D01*
X0038606Y0086342D01*
X0038606Y0085343D01*
X0042362Y0085343D01*
X0042362Y0082692D01*
X0042260Y0082311D01*
X0042062Y0081969D01*
X0041999Y0081905D01*
X0042062Y0081842D01*
X0042260Y0081500D01*
X0042362Y0081119D01*
X0042362Y0078468D01*
X0038606Y0078468D01*
X0038606Y0077469D01*
X0042362Y0077469D01*
X0042362Y0074818D01*
X0042260Y0074437D01*
X0042062Y0074095D01*
X0041783Y0073815D01*
X0041441Y0073618D01*
X0041060Y0073516D01*
X0038606Y0073516D01*
X0038606Y0077468D01*
X0037606Y0077468D01*
X0037606Y0073516D01*
X0035153Y0073516D01*
X0034771Y0073618D01*
X0034429Y0073815D01*
X0034150Y0074095D01*
X0033989Y0074375D01*
X0033330Y0073716D01*
X0026741Y0073716D01*
X0025980Y0074477D01*
X0025980Y0081460D01*
X0026425Y0081905D01*
X0025980Y0082351D01*
X0025980Y0089334D01*
X0026425Y0089780D01*
X0025980Y0090225D01*
X0025980Y0097208D01*
X0026741Y0097969D01*
X0028235Y0097969D01*
X0028235Y0117321D01*
X0010794Y0134763D01*
X0005894Y0134763D01*
X0005894Y0131891D01*
X0007303Y0133300D01*
X0010839Y0133300D01*
X0013339Y0130800D01*
X0013339Y0127309D01*
X0018269Y0122379D01*
X0018300Y0122391D01*
X0019527Y0122391D01*
X0020660Y0121922D01*
X0021528Y0121054D01*
X0021998Y0119921D01*
X0021998Y0118694D01*
X0021528Y0117560D01*
X0020660Y0116692D01*
X0019527Y0116223D01*
X0018300Y0116223D01*
X0017166Y0116692D01*
X0016299Y0117560D01*
X0015829Y0118694D01*
X0015829Y0119728D01*
X0010794Y0124763D01*
X0007303Y0124763D01*
X0005894Y0126172D01*
X0005894Y0121891D01*
X0007303Y0123300D01*
X0010839Y0123300D01*
X0013339Y0120800D01*
X0013339Y0117309D01*
X0022095Y0108553D01*
X0022237Y0108612D01*
X0023464Y0108612D01*
X0024597Y0108142D01*
X0025465Y0107275D01*
X0025935Y0106141D01*
X0025935Y0104914D01*
X0025465Y0103780D01*
X0024597Y0102913D01*
X0023464Y0102443D01*
X0022237Y0102443D01*
X0021103Y0102913D01*
X0020236Y0103780D01*
X0019766Y0104914D01*
X0019766Y0105791D01*
X0010794Y0114763D01*
X0007303Y0114763D01*
X0005894Y0116172D01*
X0005894Y0111891D01*
X0007303Y0113300D01*
X0010839Y0113300D01*
X0013339Y0110800D01*
X0013339Y0107263D01*
X0010839Y0104763D01*
X0007303Y0104763D01*
X0005894Y0106172D01*
X0005894Y0101891D01*
X0007303Y0103300D01*
X0010839Y0103300D01*
X0013339Y0100800D01*
X0013339Y0097263D01*
X0010839Y0094763D01*
X0007303Y0094763D01*
X0005894Y0096172D01*
X0005894Y0091891D01*
X0007303Y0093300D01*
X0010839Y0093300D01*
X0013339Y0090800D01*
X0013339Y0087263D01*
X0010839Y0084763D01*
X0007303Y0084763D01*
X0005894Y0086172D01*
X0005894Y0081891D01*
X0007303Y0083300D01*
X0010839Y0083300D01*
X0013339Y0080800D01*
X0013339Y0077263D01*
X0010839Y0074763D01*
X0007303Y0074763D01*
X0005894Y0076172D01*
X0005894Y0071891D01*
X0007303Y0073300D01*
X0010839Y0073300D01*
X0013339Y0070800D01*
X0013339Y0067263D01*
X0010839Y0064763D01*
X0007303Y0064763D01*
X0005894Y0066172D01*
X0005894Y0061891D01*
X0007303Y0063300D01*
X0010839Y0063300D01*
X0013339Y0060800D01*
X0013339Y0057263D01*
X0010839Y0054763D01*
X0007303Y0054763D01*
X0005894Y0056172D01*
X0005894Y0051891D01*
X0007303Y0053300D01*
X0010839Y0053300D01*
X0013339Y0050800D01*
X0013339Y0047263D01*
X0010839Y0044763D01*
X0007303Y0044763D01*
X0005894Y0046172D01*
X0005894Y0041891D01*
X0007303Y0043300D01*
X0010839Y0043300D01*
X0013339Y0040800D01*
X0013339Y0037263D01*
X0010839Y0034763D01*
X0007303Y0034763D01*
X0005894Y0036172D01*
X0005894Y0031891D01*
X0007303Y0033300D01*
X0010794Y0033300D01*
X0019766Y0042272D01*
X0019766Y0043149D01*
X0020236Y0044283D01*
X0021103Y0045150D01*
X0022237Y0045620D01*
X0023464Y0045620D01*
X0024597Y0045150D01*
X0025465Y0044283D01*
X0025935Y0043149D01*
X0025935Y0041922D01*
X0025465Y0040788D01*
X0024597Y0039921D01*
X0023464Y0039451D01*
X0022237Y0039451D01*
X0022095Y0039510D01*
X0013339Y0030754D01*
X0013339Y0027263D01*
X0010839Y0024763D01*
X0007303Y0024763D01*
X0005894Y0026172D01*
X0005894Y0021891D01*
X0007303Y0023300D01*
X0010794Y0023300D01*
X0015829Y0028335D01*
X0015829Y0029369D01*
X0016299Y0030503D01*
X0017166Y0031371D01*
X0018300Y0031840D01*
X0019527Y0031840D01*
X0020660Y0031371D01*
X0021528Y0030503D01*
X0021998Y0029369D01*
X0021998Y0028142D01*
X0021528Y0027009D01*
X0020660Y0026141D01*
X0019527Y0025672D01*
X0018300Y0025672D01*
X0018269Y0025684D01*
X0013339Y0020754D01*
X0013339Y0017263D01*
X0010839Y0014763D01*
X0007303Y0014763D01*
X0005894Y0016172D01*
X0005894Y0015176D02*
X0006890Y0015176D01*
X0005894Y0014177D02*
X0062248Y0014177D01*
X0062248Y0013179D02*
X0060960Y0013179D01*
X0061958Y0012180D02*
X0062248Y0012180D01*
X0062248Y0015176D02*
X0061252Y0015176D01*
X0059071Y0019031D02*
X0049346Y0028756D01*
X0049228Y0028756D01*
X0047263Y0031152D02*
X0020879Y0031152D01*
X0021673Y0030154D02*
X0046469Y0030154D01*
X0046144Y0029155D02*
X0021998Y0029155D01*
X0021998Y0028157D02*
X0046144Y0028157D01*
X0046552Y0027158D02*
X0021590Y0027158D01*
X0020679Y0026160D02*
X0047463Y0026160D01*
X0050396Y0025161D02*
X0017746Y0025161D01*
X0016748Y0024163D02*
X0051394Y0024163D01*
X0052393Y0023164D02*
X0015749Y0023164D01*
X0014751Y0022166D02*
X0053391Y0022166D01*
X0054390Y0021167D02*
X0013752Y0021167D01*
X0013339Y0020169D02*
X0054802Y0020169D01*
X0054802Y0019170D02*
X0013339Y0019170D01*
X0013339Y0018172D02*
X0054802Y0018172D01*
X0054893Y0017173D02*
X0013249Y0017173D01*
X0012250Y0016175D02*
X0055891Y0016175D01*
X0056890Y0015176D02*
X0011252Y0015176D01*
X0010960Y0013179D02*
X0057182Y0013179D01*
X0056183Y0012180D02*
X0011958Y0012180D01*
X0012957Y0011182D02*
X0055185Y0011182D01*
X0054802Y0010183D02*
X0013339Y0010183D01*
X0013339Y0009185D02*
X0054802Y0009185D01*
X0054802Y0008186D02*
X0013339Y0008186D01*
X0013264Y0007188D02*
X0054878Y0007188D01*
X0055876Y0006189D02*
X0012265Y0006189D01*
X0007182Y0013179D02*
X0005894Y0013179D01*
X0005894Y0012180D02*
X0006183Y0012180D01*
X0009071Y0019031D02*
X0018795Y0028756D01*
X0018913Y0028756D01*
X0016948Y0031152D02*
X0013737Y0031152D01*
X0013339Y0030154D02*
X0016154Y0030154D01*
X0015829Y0029155D02*
X0013339Y0029155D01*
X0013339Y0028157D02*
X0015650Y0028157D01*
X0014652Y0027158D02*
X0013234Y0027158D01*
X0013653Y0026160D02*
X0012236Y0026160D01*
X0012655Y0025161D02*
X0011237Y0025161D01*
X0011656Y0024163D02*
X0005894Y0024163D01*
X0005894Y0025161D02*
X0006905Y0025161D01*
X0005906Y0026160D02*
X0005894Y0026160D01*
X0005894Y0023164D02*
X0007167Y0023164D01*
X0006168Y0022166D02*
X0005894Y0022166D01*
X0009071Y0029031D02*
X0022575Y0042535D01*
X0022850Y0042535D01*
X0024816Y0040139D02*
X0043326Y0040139D01*
X0042532Y0041137D02*
X0025610Y0041137D01*
X0025935Y0042136D02*
X0042207Y0042136D01*
X0042207Y0043134D02*
X0025935Y0043134D01*
X0025527Y0044133D02*
X0042615Y0044133D01*
X0043525Y0045131D02*
X0024616Y0045131D01*
X0021725Y0039140D02*
X0046141Y0039140D01*
X0047139Y0038142D02*
X0020727Y0038142D01*
X0019728Y0037143D02*
X0048138Y0037143D01*
X0049136Y0036145D02*
X0018730Y0036145D01*
X0017731Y0035146D02*
X0050135Y0035146D01*
X0051133Y0034148D02*
X0016733Y0034148D01*
X0015734Y0033149D02*
X0052132Y0033149D01*
X0053130Y0032151D02*
X0014736Y0032151D01*
X0013639Y0036145D02*
X0012221Y0036145D01*
X0012640Y0035146D02*
X0011222Y0035146D01*
X0011642Y0034148D02*
X0005894Y0034148D01*
X0005894Y0035146D02*
X0006920Y0035146D01*
X0005921Y0036145D02*
X0005894Y0036145D01*
X0005894Y0033149D02*
X0007152Y0033149D01*
X0006154Y0032151D02*
X0005894Y0032151D01*
X0005894Y0042136D02*
X0006139Y0042136D01*
X0005894Y0043134D02*
X0007137Y0043134D01*
X0006934Y0045131D02*
X0005894Y0045131D01*
X0005894Y0044133D02*
X0020174Y0044133D01*
X0019766Y0043134D02*
X0011005Y0043134D01*
X0011207Y0045131D02*
X0021085Y0045131D01*
X0019630Y0042136D02*
X0012003Y0042136D01*
X0013002Y0041137D02*
X0018631Y0041137D01*
X0017633Y0040139D02*
X0013339Y0040139D01*
X0013339Y0039140D02*
X0016634Y0039140D01*
X0015636Y0038142D02*
X0013339Y0038142D01*
X0013219Y0037143D02*
X0014637Y0037143D01*
X0012206Y0046130D02*
X0055936Y0046130D01*
X0054937Y0047128D02*
X0013204Y0047128D01*
X0013339Y0048127D02*
X0054802Y0048127D01*
X0054802Y0049125D02*
X0013339Y0049125D01*
X0013339Y0050124D02*
X0054802Y0050124D01*
X0055125Y0051122D02*
X0013016Y0051122D01*
X0012018Y0052121D02*
X0056124Y0052121D01*
X0057122Y0053119D02*
X0011019Y0053119D01*
X0011192Y0055116D02*
X0056949Y0055116D01*
X0055951Y0056115D02*
X0012191Y0056115D01*
X0013189Y0057113D02*
X0054952Y0057113D01*
X0054802Y0058112D02*
X0013339Y0058112D01*
X0013339Y0059111D02*
X0054802Y0059111D01*
X0054802Y0060109D02*
X0013339Y0060109D01*
X0013031Y0061108D02*
X0055110Y0061108D01*
X0056109Y0062106D02*
X0012033Y0062106D01*
X0011034Y0063105D02*
X0057107Y0063105D01*
X0056964Y0065102D02*
X0011178Y0065102D01*
X0012176Y0066100D02*
X0055966Y0066100D01*
X0054967Y0067099D02*
X0013175Y0067099D01*
X0013339Y0068097D02*
X0054802Y0068097D01*
X0054802Y0069096D02*
X0013339Y0069096D01*
X0013339Y0070094D02*
X0054802Y0070094D01*
X0055095Y0071093D02*
X0013046Y0071093D01*
X0012048Y0072091D02*
X0056094Y0072091D01*
X0057092Y0073090D02*
X0011049Y0073090D01*
X0011163Y0075087D02*
X0025980Y0075087D01*
X0025980Y0076085D02*
X0012161Y0076085D01*
X0013160Y0077084D02*
X0025980Y0077084D01*
X0025980Y0078082D02*
X0013339Y0078082D01*
X0013339Y0079081D02*
X0025980Y0079081D01*
X0025980Y0080079D02*
X0013339Y0080079D01*
X0013061Y0081078D02*
X0025980Y0081078D01*
X0026255Y0082076D02*
X0012063Y0082076D01*
X0011064Y0083075D02*
X0025980Y0083075D01*
X0025980Y0084073D02*
X0005894Y0084073D01*
X0005894Y0083075D02*
X0007078Y0083075D01*
X0006994Y0085072D02*
X0005894Y0085072D01*
X0005894Y0086070D02*
X0005995Y0086070D01*
X0006079Y0082076D02*
X0005894Y0082076D01*
X0005894Y0076085D02*
X0005981Y0076085D01*
X0005894Y0075087D02*
X0006979Y0075087D01*
X0007092Y0073090D02*
X0005894Y0073090D01*
X0005894Y0074088D02*
X0026369Y0074088D01*
X0030035Y0077969D02*
X0030035Y0085843D01*
X0028756Y0084563D01*
X0028756Y0083874D01*
X0030035Y0085154D01*
X0030035Y0085843D01*
X0030035Y0093717D01*
X0030035Y0118067D01*
X0009071Y0139031D01*
X0011558Y0133999D02*
X0005894Y0133999D01*
X0005894Y0133000D02*
X0007003Y0133000D01*
X0006005Y0132002D02*
X0005894Y0132002D01*
X0005894Y0126011D02*
X0006055Y0126011D01*
X0005894Y0125012D02*
X0007054Y0125012D01*
X0007018Y0123015D02*
X0005894Y0123015D01*
X0005894Y0122017D02*
X0006020Y0122017D01*
X0005894Y0124014D02*
X0011543Y0124014D01*
X0011124Y0123015D02*
X0012542Y0123015D01*
X0012122Y0122017D02*
X0013540Y0122017D01*
X0013121Y0121018D02*
X0014539Y0121018D01*
X0015537Y0120020D02*
X0013339Y0120020D01*
X0013339Y0119021D02*
X0015829Y0119021D01*
X0016107Y0118023D02*
X0013339Y0118023D01*
X0013624Y0117024D02*
X0016835Y0117024D01*
X0015621Y0115027D02*
X0028235Y0115027D01*
X0028235Y0114029D02*
X0016619Y0114029D01*
X0017618Y0113030D02*
X0028235Y0113030D01*
X0028235Y0112032D02*
X0018616Y0112032D01*
X0019615Y0111033D02*
X0028235Y0111033D01*
X0028235Y0110035D02*
X0020613Y0110035D01*
X0021612Y0109036D02*
X0028235Y0109036D01*
X0028235Y0108038D02*
X0024702Y0108038D01*
X0025563Y0107039D02*
X0028235Y0107039D01*
X0028235Y0106041D02*
X0025935Y0106041D01*
X0025935Y0105042D02*
X0028235Y0105042D01*
X0028235Y0104044D02*
X0025574Y0104044D01*
X0024730Y0103045D02*
X0028235Y0103045D01*
X0028235Y0102046D02*
X0012092Y0102046D01*
X0013091Y0101048D02*
X0028235Y0101048D01*
X0028235Y0100049D02*
X0013339Y0100049D01*
X0013339Y0099051D02*
X0028235Y0099051D01*
X0028235Y0098052D02*
X0013339Y0098052D01*
X0013130Y0097054D02*
X0025980Y0097054D01*
X0025980Y0096055D02*
X0012131Y0096055D01*
X0011133Y0095057D02*
X0025980Y0095057D01*
X0025980Y0094058D02*
X0005894Y0094058D01*
X0005894Y0093060D02*
X0007063Y0093060D01*
X0007009Y0095057D02*
X0005894Y0095057D01*
X0005894Y0096055D02*
X0006010Y0096055D01*
X0006064Y0092061D02*
X0005894Y0092061D01*
X0005894Y0102046D02*
X0006049Y0102046D01*
X0005894Y0103045D02*
X0007048Y0103045D01*
X0005894Y0104044D02*
X0020127Y0104044D01*
X0019766Y0105042D02*
X0011118Y0105042D01*
X0012116Y0106041D02*
X0019516Y0106041D01*
X0018518Y0107039D02*
X0013115Y0107039D01*
X0013339Y0108038D02*
X0017519Y0108038D01*
X0016521Y0109036D02*
X0013339Y0109036D01*
X0013339Y0110035D02*
X0015522Y0110035D01*
X0014524Y0111033D02*
X0013106Y0111033D01*
X0013525Y0112032D02*
X0012107Y0112032D01*
X0012527Y0113030D02*
X0011109Y0113030D01*
X0011528Y0114029D02*
X0005894Y0114029D01*
X0005894Y0115027D02*
X0007039Y0115027D01*
X0007033Y0113030D02*
X0005894Y0113030D01*
X0005894Y0112032D02*
X0006034Y0112032D01*
X0006040Y0116026D02*
X0005894Y0116026D01*
X0009071Y0119031D02*
X0022575Y0105528D01*
X0022850Y0105528D01*
X0020971Y0103045D02*
X0011094Y0103045D01*
X0007024Y0105042D02*
X0005894Y0105042D01*
X0005894Y0106041D02*
X0006025Y0106041D01*
X0011079Y0093060D02*
X0025980Y0093060D01*
X0025980Y0092061D02*
X0012078Y0092061D01*
X0013076Y0091063D02*
X0025980Y0091063D01*
X0026140Y0090064D02*
X0013339Y0090064D01*
X0013339Y0089066D02*
X0025980Y0089066D01*
X0025980Y0088067D02*
X0013339Y0088067D01*
X0013145Y0087069D02*
X0025980Y0087069D01*
X0025980Y0086070D02*
X0012146Y0086070D01*
X0011148Y0085072D02*
X0025980Y0085072D01*
X0031835Y0098052D02*
X0034746Y0098052D01*
X0037606Y0098052D02*
X0038606Y0098052D01*
X0038606Y0097054D02*
X0037606Y0097054D01*
X0037606Y0096055D02*
X0038606Y0096055D01*
X0038606Y0095057D02*
X0037606Y0095057D01*
X0038606Y0094058D02*
X0062248Y0094058D01*
X0062248Y0093060D02*
X0061079Y0093060D01*
X0062078Y0092061D02*
X0062248Y0092061D01*
X0062248Y0095057D02*
X0061133Y0095057D01*
X0062131Y0096055D02*
X0062248Y0096055D01*
X0059071Y0099031D02*
X0056512Y0101591D01*
X0046472Y0101591D01*
X0042535Y0105528D01*
X0042535Y0129150D01*
X0040567Y0131118D01*
X0041672Y0133999D02*
X0042704Y0133999D01*
X0042704Y0134997D02*
X0015651Y0134997D01*
X0014652Y0135996D02*
X0042704Y0135996D01*
X0042704Y0136994D02*
X0013654Y0136994D01*
X0013339Y0137993D02*
X0042704Y0137993D01*
X0042704Y0138991D02*
X0013339Y0138991D01*
X0013339Y0139990D02*
X0042704Y0139990D01*
X0042704Y0140988D02*
X0013339Y0140988D01*
X0013339Y0141987D02*
X0042704Y0141987D01*
X0042571Y0142985D02*
X0012892Y0142985D01*
X0014802Y0145981D02*
X0005894Y0145981D01*
X0005894Y0146980D02*
X0014802Y0146980D01*
X0014802Y0147978D02*
X0005894Y0147978D01*
X0005894Y0148977D02*
X0014802Y0148977D01*
X0014802Y0149975D02*
X0005894Y0149975D01*
X0005894Y0150974D02*
X0014802Y0150974D01*
X0014802Y0151972D02*
X0005894Y0151972D01*
X0005894Y0144982D02*
X0015344Y0144982D01*
X0016649Y0133999D02*
X0039462Y0133999D01*
X0038087Y0133000D02*
X0017648Y0133000D01*
X0018646Y0132002D02*
X0037595Y0132002D01*
X0037483Y0131003D02*
X0019645Y0131003D01*
X0020643Y0130005D02*
X0037690Y0130005D01*
X0038317Y0129006D02*
X0021642Y0129006D01*
X0022640Y0128008D02*
X0040735Y0128008D01*
X0040735Y0127009D02*
X0023639Y0127009D01*
X0024637Y0126011D02*
X0040735Y0126011D01*
X0040735Y0125012D02*
X0025636Y0125012D01*
X0026634Y0124014D02*
X0040735Y0124014D01*
X0040735Y0123015D02*
X0027633Y0123015D01*
X0028631Y0122017D02*
X0040735Y0122017D01*
X0040735Y0121018D02*
X0029630Y0121018D01*
X0030628Y0120020D02*
X0040735Y0120020D01*
X0040735Y0119021D02*
X0031627Y0119021D01*
X0031835Y0118023D02*
X0040735Y0118023D01*
X0040735Y0117024D02*
X0031835Y0117024D01*
X0031835Y0116026D02*
X0040735Y0116026D01*
X0040735Y0115027D02*
X0031835Y0115027D01*
X0031835Y0114029D02*
X0040735Y0114029D01*
X0040735Y0113030D02*
X0031835Y0113030D01*
X0031835Y0112032D02*
X0040735Y0112032D01*
X0040735Y0111033D02*
X0031835Y0111033D01*
X0031835Y0110035D02*
X0040735Y0110035D01*
X0040735Y0109036D02*
X0031835Y0109036D01*
X0031835Y0108038D02*
X0040735Y0108038D01*
X0040735Y0107039D02*
X0031835Y0107039D01*
X0031835Y0106041D02*
X0040735Y0106041D01*
X0040735Y0105042D02*
X0031835Y0105042D01*
X0031835Y0104044D02*
X0041474Y0104044D01*
X0042472Y0103045D02*
X0031835Y0103045D01*
X0031835Y0102046D02*
X0043471Y0102046D01*
X0044469Y0101048D02*
X0031835Y0101048D01*
X0031835Y0100049D02*
X0045468Y0100049D01*
X0042312Y0097054D02*
X0055012Y0097054D01*
X0054802Y0098052D02*
X0041466Y0098052D01*
X0042362Y0096055D02*
X0056010Y0096055D01*
X0057009Y0095057D02*
X0042362Y0095057D01*
X0042362Y0093060D02*
X0057063Y0093060D01*
X0056064Y0092061D02*
X0042362Y0092061D01*
X0042362Y0091063D02*
X0055066Y0091063D01*
X0054802Y0090064D02*
X0042190Y0090064D01*
X0042343Y0089066D02*
X0054802Y0089066D01*
X0054802Y0088067D02*
X0042362Y0088067D01*
X0042362Y0087069D02*
X0054997Y0087069D01*
X0055995Y0086070D02*
X0038606Y0086070D01*
X0038606Y0086343D02*
X0037606Y0086343D01*
X0037606Y0093216D01*
X0038606Y0093216D01*
X0038606Y0089264D01*
X0038606Y0086343D01*
X0038606Y0087069D02*
X0037606Y0087069D01*
X0037606Y0088067D02*
X0038606Y0088067D01*
X0038606Y0089066D02*
X0037606Y0089066D01*
X0037606Y0090064D02*
X0038606Y0090064D01*
X0038606Y0091063D02*
X0037606Y0091063D01*
X0037606Y0092061D02*
X0038606Y0092061D01*
X0038606Y0093060D02*
X0037606Y0093060D01*
X0037606Y0085342D02*
X0038606Y0085342D01*
X0038606Y0081390D01*
X0038606Y0078469D01*
X0037606Y0078469D01*
X0037606Y0085342D01*
X0037606Y0085072D02*
X0038606Y0085072D01*
X0038606Y0084073D02*
X0037606Y0084073D01*
X0037606Y0083075D02*
X0038606Y0083075D01*
X0038606Y0082076D02*
X0037606Y0082076D01*
X0037606Y0081078D02*
X0038606Y0081078D01*
X0038606Y0080079D02*
X0037606Y0080079D01*
X0037606Y0079081D02*
X0038606Y0079081D01*
X0038606Y0078082D02*
X0054802Y0078082D01*
X0054802Y0079081D02*
X0042362Y0079081D01*
X0042362Y0080079D02*
X0054802Y0080079D01*
X0055081Y0081078D02*
X0042362Y0081078D01*
X0042125Y0082076D02*
X0056079Y0082076D01*
X0057078Y0083075D02*
X0042362Y0083075D01*
X0042362Y0084073D02*
X0062248Y0084073D01*
X0062248Y0083075D02*
X0061064Y0083075D01*
X0062063Y0082076D02*
X0062248Y0082076D01*
X0062248Y0085072D02*
X0061148Y0085072D01*
X0062146Y0086070D02*
X0062248Y0086070D01*
X0056994Y0085072D02*
X0042362Y0085072D01*
X0042362Y0077084D02*
X0054982Y0077084D01*
X0055981Y0076085D02*
X0042362Y0076085D01*
X0042362Y0075087D02*
X0056979Y0075087D01*
X0061163Y0075087D02*
X0062248Y0075087D01*
X0062248Y0076085D02*
X0062161Y0076085D01*
X0062248Y0074088D02*
X0042056Y0074088D01*
X0038606Y0074088D02*
X0037606Y0074088D01*
X0037606Y0075087D02*
X0038606Y0075087D01*
X0038606Y0076085D02*
X0037606Y0076085D01*
X0037606Y0077084D02*
X0038606Y0077084D01*
X0034157Y0074088D02*
X0033702Y0074088D01*
X0031835Y0099051D02*
X0054802Y0099051D01*
X0053598Y0103559D02*
X0048441Y0103559D01*
X0044504Y0107496D01*
X0044504Y0143598D01*
X0039071Y0149031D01*
X0037083Y0144982D02*
X0031341Y0144982D01*
X0032340Y0145981D02*
X0036085Y0145981D01*
X0035086Y0146980D02*
X0033338Y0146980D01*
X0033539Y0147978D02*
X0034802Y0147978D01*
X0034802Y0148977D02*
X0029555Y0148977D01*
X0028587Y0148977D02*
X0023339Y0148977D01*
X0023339Y0149975D02*
X0024602Y0149975D01*
X0024694Y0150974D02*
X0023339Y0150974D01*
X0023339Y0151972D02*
X0025692Y0151972D01*
X0024602Y0147978D02*
X0023339Y0147978D01*
X0023339Y0146980D02*
X0024803Y0146980D01*
X0025802Y0145981D02*
X0023339Y0145981D01*
X0022797Y0144982D02*
X0026800Y0144982D01*
X0028587Y0144982D02*
X0029555Y0144982D01*
X0029555Y0145981D02*
X0028587Y0145981D01*
X0028587Y0146980D02*
X0029555Y0146980D01*
X0029555Y0147978D02*
X0028587Y0147978D01*
X0032450Y0151972D02*
X0035975Y0151972D01*
X0034976Y0150974D02*
X0033448Y0150974D01*
X0033539Y0149975D02*
X0034802Y0149975D01*
X0042127Y0152012D02*
X0046015Y0152012D01*
X0044802Y0150800D01*
X0044802Y0147263D01*
X0047303Y0144763D01*
X0050839Y0144763D01*
X0053339Y0147263D01*
X0053339Y0150800D01*
X0052127Y0152012D01*
X0062248Y0152012D01*
X0062248Y0143497D01*
X0062237Y0143500D01*
X0059555Y0143500D01*
X0059555Y0139516D01*
X0058587Y0139516D01*
X0058587Y0143500D01*
X0055905Y0143500D01*
X0055523Y0143398D01*
X0055181Y0143200D01*
X0054902Y0142921D01*
X0054705Y0142579D01*
X0054602Y0142197D01*
X0054602Y0139516D01*
X0058587Y0139516D01*
X0058587Y0138547D01*
X0059555Y0138547D01*
X0059555Y0134563D01*
X0062237Y0134563D01*
X0062248Y0134566D01*
X0062248Y0131891D01*
X0060839Y0133300D01*
X0057303Y0133300D01*
X0054802Y0130800D01*
X0054802Y0127263D01*
X0057303Y0124763D01*
X0060839Y0124763D01*
X0062248Y0126172D01*
X0062248Y0121891D01*
X0060839Y0123300D01*
X0057303Y0123300D01*
X0054802Y0120800D01*
X0054802Y0117309D01*
X0049984Y0112490D01*
X0049842Y0112549D01*
X0048615Y0112549D01*
X0047481Y0112079D01*
X0046614Y0111212D01*
X0046304Y0110464D01*
X0046304Y0144344D01*
X0043339Y0147309D01*
X0043339Y0150800D01*
X0042127Y0152012D01*
X0042167Y0151972D02*
X0045975Y0151972D01*
X0044976Y0150974D02*
X0043165Y0150974D01*
X0043339Y0149975D02*
X0044802Y0149975D01*
X0044802Y0148977D02*
X0043339Y0148977D01*
X0043339Y0147978D02*
X0044802Y0147978D01*
X0045086Y0146980D02*
X0043668Y0146980D01*
X0044667Y0145981D02*
X0046085Y0145981D01*
X0045665Y0144982D02*
X0047083Y0144982D01*
X0046304Y0143984D02*
X0062248Y0143984D01*
X0062248Y0144982D02*
X0051058Y0144982D01*
X0052057Y0145981D02*
X0062248Y0145981D01*
X0062248Y0146980D02*
X0053055Y0146980D01*
X0053339Y0147978D02*
X0062248Y0147978D01*
X0062248Y0148977D02*
X0053339Y0148977D01*
X0053339Y0149975D02*
X0062248Y0149975D01*
X0062248Y0150974D02*
X0053165Y0150974D01*
X0052167Y0151972D02*
X0062248Y0151972D01*
X0059555Y0142985D02*
X0058587Y0142985D01*
X0058587Y0141987D02*
X0059555Y0141987D01*
X0059555Y0140988D02*
X0058587Y0140988D01*
X0058587Y0139990D02*
X0059555Y0139990D01*
X0058587Y0138991D02*
X0046304Y0138991D01*
X0046304Y0137993D02*
X0054602Y0137993D01*
X0054602Y0138547D02*
X0054602Y0135866D01*
X0054705Y0135484D01*
X0054902Y0135142D01*
X0055181Y0134863D01*
X0055523Y0134665D01*
X0055905Y0134563D01*
X0058587Y0134563D01*
X0058587Y0138547D01*
X0054602Y0138547D01*
X0054602Y0139990D02*
X0046304Y0139990D01*
X0046304Y0140988D02*
X0054602Y0140988D01*
X0054602Y0141987D02*
X0046304Y0141987D01*
X0046304Y0142985D02*
X0054967Y0142985D01*
X0054602Y0136994D02*
X0046304Y0136994D01*
X0046304Y0135996D02*
X0054602Y0135996D01*
X0055047Y0134997D02*
X0046304Y0134997D01*
X0046304Y0133999D02*
X0062248Y0133999D01*
X0062248Y0133000D02*
X0061139Y0133000D01*
X0062137Y0132002D02*
X0062248Y0132002D01*
X0059555Y0134997D02*
X0058587Y0134997D01*
X0058587Y0135996D02*
X0059555Y0135996D01*
X0059555Y0136994D02*
X0058587Y0136994D01*
X0058587Y0137993D02*
X0059555Y0137993D01*
X0057003Y0133000D02*
X0046304Y0133000D01*
X0046304Y0132002D02*
X0056005Y0132002D01*
X0055006Y0131003D02*
X0046304Y0131003D01*
X0046304Y0130005D02*
X0054802Y0130005D01*
X0054802Y0129006D02*
X0046304Y0129006D01*
X0046304Y0128008D02*
X0054802Y0128008D01*
X0055057Y0127009D02*
X0046304Y0127009D01*
X0046304Y0126011D02*
X0056055Y0126011D01*
X0057054Y0125012D02*
X0046304Y0125012D01*
X0046304Y0124014D02*
X0062248Y0124014D01*
X0062248Y0125012D02*
X0061088Y0125012D01*
X0062087Y0126011D02*
X0062248Y0126011D01*
X0062248Y0123015D02*
X0061124Y0123015D01*
X0062122Y0122017D02*
X0062248Y0122017D01*
X0059071Y0119031D02*
X0049504Y0109465D01*
X0049228Y0109465D01*
X0047434Y0112032D02*
X0046304Y0112032D01*
X0046304Y0113030D02*
X0050524Y0113030D01*
X0051522Y0114029D02*
X0046304Y0114029D01*
X0046304Y0115027D02*
X0052521Y0115027D01*
X0053519Y0116026D02*
X0046304Y0116026D01*
X0046304Y0117024D02*
X0054518Y0117024D01*
X0054802Y0118023D02*
X0046304Y0118023D01*
X0046304Y0119021D02*
X0054802Y0119021D01*
X0054802Y0120020D02*
X0046304Y0120020D01*
X0046304Y0121018D02*
X0055021Y0121018D01*
X0056020Y0122017D02*
X0046304Y0122017D01*
X0046304Y0123015D02*
X0057018Y0123015D01*
X0059071Y0109031D02*
X0053598Y0103559D01*
X0046540Y0111033D02*
X0046304Y0111033D01*
X0041573Y0143984D02*
X0005894Y0143984D01*
X0011139Y0133000D02*
X0012556Y0133000D01*
X0012137Y0132002D02*
X0013555Y0132002D01*
X0013136Y0131003D02*
X0014553Y0131003D01*
X0015552Y0130005D02*
X0013339Y0130005D01*
X0013339Y0129006D02*
X0016550Y0129006D01*
X0017549Y0128008D02*
X0013339Y0128008D01*
X0013639Y0127009D02*
X0018547Y0127009D01*
X0019546Y0126011D02*
X0014637Y0126011D01*
X0015636Y0125012D02*
X0020545Y0125012D01*
X0021543Y0124014D02*
X0016634Y0124014D01*
X0017633Y0123015D02*
X0022542Y0123015D01*
X0021543Y0121018D02*
X0024539Y0121018D01*
X0025537Y0120020D02*
X0021957Y0120020D01*
X0021998Y0119021D02*
X0026536Y0119021D01*
X0027534Y0118023D02*
X0021720Y0118023D01*
X0020992Y0117024D02*
X0028235Y0117024D01*
X0028235Y0116026D02*
X0014622Y0116026D01*
X0018795Y0119307D02*
X0009071Y0129031D01*
X0018795Y0119307D02*
X0018913Y0119307D01*
X0020431Y0122017D02*
X0023540Y0122017D01*
X0006094Y0072091D02*
X0005894Y0072091D01*
X0005894Y0066100D02*
X0005966Y0066100D01*
X0005894Y0065102D02*
X0006964Y0065102D01*
X0005894Y0064103D02*
X0062248Y0064103D01*
X0062248Y0063105D02*
X0061034Y0063105D01*
X0062033Y0062106D02*
X0062248Y0062106D01*
X0062248Y0065102D02*
X0061177Y0065102D01*
X0062176Y0066100D02*
X0062248Y0066100D01*
X0062248Y0072091D02*
X0062048Y0072091D01*
X0062248Y0073090D02*
X0061049Y0073090D01*
X0062191Y0056115D02*
X0062248Y0056115D01*
X0062248Y0055116D02*
X0061192Y0055116D01*
X0062248Y0054118D02*
X0005894Y0054118D01*
X0005894Y0055116D02*
X0006949Y0055116D01*
X0007122Y0053119D02*
X0005894Y0053119D01*
X0005894Y0052121D02*
X0006124Y0052121D01*
X0005951Y0056115D02*
X0005894Y0056115D01*
X0005894Y0062106D02*
X0006109Y0062106D01*
X0005894Y0063105D02*
X0007107Y0063105D01*
X0005936Y0046130D02*
X0005894Y0046130D01*
X0045291Y0042535D02*
X0058795Y0029031D01*
X0059071Y0029031D01*
X0061237Y0025161D02*
X0062248Y0025161D01*
X0062248Y0024163D02*
X0056485Y0024163D01*
X0056905Y0025161D02*
X0055487Y0025161D01*
X0055906Y0026160D02*
X0054488Y0026160D01*
X0054908Y0027158D02*
X0053490Y0027158D01*
X0052491Y0028157D02*
X0054802Y0028157D01*
X0054802Y0029155D02*
X0052313Y0029155D01*
X0051988Y0030154D02*
X0054802Y0030154D01*
X0054129Y0031152D02*
X0051194Y0031152D01*
X0054228Y0036145D02*
X0055921Y0036145D01*
X0055226Y0035146D02*
X0056920Y0035146D01*
X0056225Y0034148D02*
X0062248Y0034148D01*
X0062248Y0035146D02*
X0061222Y0035146D01*
X0062221Y0036145D02*
X0062248Y0036145D01*
X0062248Y0033149D02*
X0060990Y0033149D01*
X0061988Y0032151D02*
X0062248Y0032151D01*
X0062236Y0026160D02*
X0062248Y0026160D01*
X0062248Y0023164D02*
X0060975Y0023164D01*
X0061973Y0022166D02*
X0062248Y0022166D01*
X0054923Y0037143D02*
X0053229Y0037143D01*
X0052231Y0038142D02*
X0054802Y0038142D01*
X0054802Y0039140D02*
X0051232Y0039140D01*
X0050234Y0040139D02*
X0054802Y0040139D01*
X0055140Y0041137D02*
X0049235Y0041137D01*
X0048376Y0042136D02*
X0056139Y0042136D01*
X0057137Y0043134D02*
X0048376Y0043134D01*
X0047968Y0044133D02*
X0062248Y0044133D01*
X0062248Y0045131D02*
X0061207Y0045131D01*
X0062206Y0046130D02*
X0062248Y0046130D01*
X0062248Y0043134D02*
X0061005Y0043134D01*
X0062003Y0042136D02*
X0062248Y0042136D01*
X0062248Y0052121D02*
X0062018Y0052121D01*
X0062248Y0053119D02*
X0061019Y0053119D01*
X0056934Y0045131D02*
X0047057Y0045131D01*
M02*
