%
M48
M72
T01C0.01969
T02C0.03937
%
T01
X18913Y28756
X22850Y42535
X38598Y68126
X45291Y42535
X49228Y28756
X48441Y95685
X49228Y109465
X40567Y131118
X30724Y127181
X22850Y105528
X18913Y119307
T02
X9071Y9031
X9071Y19031
X9071Y29031
X9071Y39031
X9071Y49031
X9071Y59031
X9071Y69031
X9071Y79031
X9071Y89031
X9071Y99031
X9071Y109031
X9071Y119031
X9071Y129031
X9071Y139031
X19071Y149031
X29071Y149031
X39071Y149031
X49071Y149031
X59071Y139031
X59071Y129031
X59071Y119031
X59071Y109031
X59071Y99031
X59071Y89031
X59071Y79031
X59071Y69031
X59071Y59031
X59071Y49031
X59071Y39031
X59071Y29031
X59071Y19031
X59071Y9031
M30
