G75*
%MOIN*%
%OFA0B0*%
%FSLAX25Y25*%
%IPPOS*%
%LPD*%
%AMOC8*
5,1,8,0,0,1.08239X$1,22.5*
%
%ADD10C,0.00394*%
%ADD11C,0.00200*%
%ADD12C,0.00500*%
D10*
X0001197Y0001197D02*
X0001197Y0156709D01*
X0066945Y0156709D01*
X0066945Y0001197D01*
X0001197Y0001197D01*
D11*
X0042981Y0074900D02*
X0044448Y0074900D01*
X0043715Y0074900D02*
X0043715Y0077102D01*
X0044448Y0076368D01*
X0045190Y0076735D02*
X0045557Y0077102D01*
X0046291Y0077102D01*
X0046658Y0076735D01*
X0046658Y0075267D01*
X0046291Y0074900D01*
X0045557Y0074900D01*
X0045190Y0075267D01*
X0045557Y0082774D02*
X0045190Y0083141D01*
X0045557Y0082774D02*
X0046291Y0082774D01*
X0046658Y0083141D01*
X0046658Y0084609D01*
X0046291Y0084976D01*
X0045557Y0084976D01*
X0045190Y0084609D01*
X0044448Y0084609D02*
X0044081Y0084976D01*
X0043348Y0084976D01*
X0042981Y0084609D01*
X0042981Y0084242D01*
X0044448Y0082774D01*
X0042981Y0082774D01*
X0043348Y0090648D02*
X0044081Y0090648D01*
X0044448Y0091015D01*
X0045190Y0091015D02*
X0045557Y0090648D01*
X0046291Y0090648D01*
X0046658Y0091015D01*
X0046658Y0092483D01*
X0046291Y0092850D01*
X0045557Y0092850D01*
X0045190Y0092483D01*
X0044448Y0092483D02*
X0044081Y0092850D01*
X0043348Y0092850D01*
X0042981Y0092483D01*
X0042981Y0092116D01*
X0043348Y0091749D01*
X0042981Y0091382D01*
X0042981Y0091015D01*
X0043348Y0090648D01*
X0043348Y0091749D02*
X0043715Y0091749D01*
D12*
X0041945Y0089780D02*
X0026197Y0089780D01*
X0026197Y0097654D01*
X0041945Y0097654D01*
X0041945Y0089780D01*
X0041945Y0081906D01*
X0026197Y0081906D01*
X0026197Y0089780D01*
X0041945Y0089780D01*
X0041945Y0081906D02*
X0041945Y0074031D01*
X0026197Y0074031D01*
X0026197Y0081906D01*
X0041945Y0081906D01*
M02*
